<?xml version="1.0" encoding="UTF-8" standalone="no"?>
<!-- Created with Inkscape (http://www.inkscape.org/) -->

<svg
   xmlns:dc="http://purl.org/dc/elements/1.1/"
   xmlns:cc="http://creativecommons.org/ns#"
   xmlns:rdf="http://www.w3.org/1999/02/22-rdf-syntax-ns#"
   xmlns:svg="http://www.w3.org/2000/svg"
   xmlns="http://www.w3.org/2000/svg"
   xmlns:sodipodi="http://sodipodi.sourceforge.net/DTD/sodipodi-0.dtd"
   xmlns:inkscape="http://www.inkscape.org/namespaces/inkscape"
   width="133.44609mm"
   height="81.785797mm"
   viewBox="0 0 133.44609 81.785797"
   version="1.1"
   id="svg7885"
   inkscape:version="0.92.4 (5da689c313, 2019-01-14)"
   sodipodi:docname="talkie_toaster.svg">
  <defs
     id="defs7879" />
  <sodipodi:namedview
     id="base"
     pagecolor="#ffffff"
     bordercolor="#666666"
     borderopacity="1.0"
     inkscape:pageopacity="0.0"
     inkscape:pageshadow="2"
     inkscape:zoom="1.4142136"
     inkscape:cx="150.64816"
     inkscape:cy="181.8173"
     inkscape:document-units="mm"
     inkscape:current-layer="layer1"
     showgrid="false"
     inkscape:window-width="1920"
     inkscape:window-height="1017"
     inkscape:window-x="-8"
     inkscape:window-y="-8"
     inkscape:window-maximized="1" />
  <metadata
     id="metadata7882">
    <rdf:RDF>
      <cc:Work
         rdf:about="">
        <dc:format>image/svg+xml</dc:format>
        <dc:type
           rdf:resource="http://purl.org/dc/dcmitype/StillImage" />
        <dc:title></dc:title>
      </cc:Work>
    </rdf:RDF>
  </metadata>
  <g
     inkscape:label="Layer 1"
     inkscape:groupmode="layer"
     id="layer1"
     transform="translate(-22.97955,-38.502084)">
    <path
       style="fill:#000000;fill-opacity:1;stroke:#000000;stroke-width:0.26458332px;stroke-linecap:butt;stroke-linejoin:miter;stroke-opacity:1"
       d="m 41.533685,49.107513 c -0.808857,0.202213 -0.491228,0.187089 -0.935445,0.187089 -0.06236,0 -0.13131,0.02789 -0.187089,0 -0.07888,-0.03944 -0.108204,-0.147648 -0.187087,-0.187089 -0.05962,-0.02981 -0.768239,0 -0.935445,0 -0.498901,0 -0.997805,0 -1.496708,0 -0.08426,0 -0.504328,-0.02847 -0.561266,0 -0.07888,0.03944 -0.108204,0.147648 -0.18709,0.187089 -0.05578,0.02789 -0.13131,-0.02789 -0.187087,0 -0.07888,0.03944 -0.108206,0.147646 -0.187089,0.187087 -0.05578,0.02789 -0.142991,-0.0441 -0.18709,0 -0.04409,0.0441 0.02789,0.13131 0,0.18709 -0.07888,0.157765 -0.295293,0.21641 -0.374176,0.374176 -0.05578,0.111559 0.08819,0.285983 0,0.374179 -0.0441,0.0441 -0.142991,-0.0441 -0.187089,0 -0.08819,0.08819 0.05578,0.262618 0,0.374176 -0.03944,0.07888 -0.147646,0.108207 -0.187087,0.18709 -0.05578,0.111556 0.05578,0.262617 0,0.374176 -0.03944,0.07888 -0.147648,0.108207 -0.18709,0.18709 -0.05902,0.118028 0.05901,0.817414 0,0.935442 -0.03944,0.07888 -0.147648,0.108207 -0.187089,0.18709 -0.02783,0.05566 0,1.043831 0,1.122532 0,0.06236 -0.02789,0.13131 0,0.187089 0.03944,0.07888 0.147648,0.108204 0.187089,0.187087 0.05578,0.111559 -0.08819,0.285983 0,0.374179 0.0441,0.04409 0.142992,-0.0441 0.18709,0 0.08819,0.08819 -0.0882,0.285983 0,0.374176 0.08819,0.08819 0.262617,-0.05578 0.374176,0 0.07888,0.03944 0.108204,0.147648 0.18709,0.18709 0.05578,0.02789 0.124724,0 0.187086,0 0.06236,0.06236 0.108207,0.147645 0.18709,0.187087 0.117589,0.05879 0.630764,-0.05879 0.748355,0 0.07888,0.03944 0.103421,0.1592 0.187087,0.187089 0.04075,0.01357 0.889371,0.02304 0.935445,0 0.07888,-0.03944 0.108204,-0.147648 0.187087,-0.187089 0.04986,-0.02492 1.037897,0 1.122532,0 0.249452,0 0.498903,0 0.748355,0 0.06236,0 0.1592,0.05578 0.18709,0 0.05578,-0.111557 0,-0.249452 0,-0.374177 0,-0.187089 0.05916,-0.383778 0,-0.561266 -0.02789,-0.08367 -0.147648,-0.108204 -0.18709,-0.187089 -0.02789,-0.05578 0,-0.124725 0,-0.187087 0,-0.06237 0,-0.124727 0,-0.187089 0,-0.422678 -0.02789,0.08367 0.18709,-0.561266 0.03409,-0.10227 0,-1.163376 0,-1.309622 0,-0.06236 0,-0.124724 0,-0.187089 0,-0.06236 -0.02789,-0.131308 0,-0.187087 0.03944,-0.07888 0.147645,-0.108207 0.187089,-0.18709 0.02789,-0.05578 0,-0.124724 0,-0.187089 0,-0.311814 0,-0.623628 0,-0.935442 0,-0.124725 -0.05578,-0.262621 0,-0.374177 0.139446,-0.278897 0.374177,-0.498903 0.561266,-0.748355 z"
       id="path8479"
       inkscape:connector-curvature="0" />
    <path
       style="fill:#5b7a98;fill-opacity:1;stroke:none;stroke-width:0.26458332px;stroke-linecap:butt;stroke-linejoin:miter;stroke-opacity:1"
       d="m 132.82083,46.968751 c 0,2.011063 0.15777,0.320447 -0.26458,1.5875 -0.0279,0.08367 0,0.176387 0,0.264583 0,0.620493 -0.0624,-0.124727 0.26458,0.529167 0.0394,0.07888 0,0.176387 0,0.264583 0,0.79375 0,1.5875 0,2.38125 0,0.138356 -0.0348,0.988761 0,1.058333 0.0558,0.111557 0.20881,0.153025 0.26458,0.264584 0.0832,0.166296 -0.0831,0.892034 0,1.058333 0.0558,0.111556 0.22515,0.146256 0.26459,0.264583 0.0558,0.167336 0,0.352777 0,0.529167 0,0.61736 0,1.23472 0,1.852083 0,0.264584 -0.0837,0.542743 0,0.79375 0.0394,0.118325 0.2088,0.153025 0.26458,0.264584 0.0348,0.06957 0,0.919974 0,1.058333 0,0.61736 0,1.23472 0,1.852083 0,0.119155 -0.0403,0.713227 0,0.79375 0.0558,0.111556 0.20881,0.153025 0.26458,0.264584 0.0394,0.07888 0,0.176387 0,0.264583 0,0.08819 0,0.176387 0,0.264583 0,0.529167 0,1.058334 0,1.5875 0,0.119155 -0.0403,0.713227 0,0.79375 0.0558,0.111556 0.20881,0.153025 0.26459,0.264583 0.0718,0.143532 -0.0724,0.985936 0,1.058334 0.0624,0.06236 0.22514,-0.07889 0.26458,0 0.0768,0.153646 -0.078,1.431533 0,1.5875 0.0558,0.111556 0.20881,0.153024 0.26458,0.264583 0.0831,0.166296 -0.0831,0.892035 0,1.058333 0.0558,0.111557 0.20881,0.153025 0.26459,0.264584 0.0803,0.16066 -0.0803,1.426837 0,1.5875 0.0558,0.111556 0.2088,0.153024 0.26458,0.264583 0.0403,0.08052 0,0.674592 0,0.79375 0,0.881944 0,1.763887 0,2.645833 0,0.620493 -0.0624,-0.124727 0.26458,0.529167 0.0395,0.07888 0,0.176387 0,0.264583 0,0.187537 -0.0342,1.51909 0,1.5875 0.0558,0.111557 0.20881,0.153025 0.26459,0.264584 0.0353,0.07051 0,1.467802 0,1.5875 0,0.138356 -0.0348,0.988761 0,1.058333 0.0558,0.111556 0.2088,0.153024 0.26458,0.264583 0.0394,0.07888 0,0.176387 0,0.264584 0,0.187536 -0.0342,1.519089 0,1.5875 0.0558,0.111556 0.20881,0.153024 0.26458,0.264583 0.0391,0.07809 0,1.579507 0,1.852083 0,0.08819 0,0.176387 0,0.264584 0,0.08819 -0.0394,0.185697 0,0.264583 0.0558,0.111556 0.20881,0.153024 0.26459,0.264583 0.0858,0.17154 -0.0831,1.338231 0,1.5875 0.30402,0.912075 0.26458,0.195993 0.26458,0.79375 0,0.440971 0,0.881944 0,1.322917 0,0.08819 0,0.176387 0,0.264583 0,0.08819 -0.0394,0.185698 0,0.264584 0.0558,0.111556 0.20881,0.153024 0.26458,0.264583 0.0395,0.07888 0,0.176387 0,0.264583 0,0.08819 0,0.176387 0,0.264584 0,0.44097 0,0.881943 0,1.322916 0,0.08819 0,0.176387 0,0.264583 0,0.08819 -0.0394,0.185698 0,0.264584 0.0558,0.111556 0.20881,0.153024 0.26459,0.264583 0.0394,0.07888 0,0.176387 0,0.264583 0,0.08819 0,0.176388 0,0.264584 0,0.44097 0,0.881943 0,1.322916 0,0.176388 0,0.352777 0,0.529167 0,0.08819 -0.0394,0.185698 0,0.264583 0.0558,0.111557 0.2088,0.153025 0.26458,0.264584 0.0832,0.166296 -0.0831,0.892035 0,1.058333 0.0558,0.111556 0.20881,0.153025 0.26458,0.264583 0.0831,0.166296 -0.0831,0.892035 0,1.058334 0.0558,0.111556 0.22515,0.146256 0.26459,0.264583 0.06,0.179996 -0.0702,1.182624 0,1.322917 0.0558,0.111556 0.2088,0.153024 0.26458,0.264583 0.0835,0.166915 -0.0835,1.156 0,1.32292 0.0558,0.11155 0.20881,0.15302 0.26458,0.26458 0.0835,0.16692 -0.0834,1.156 0,1.32292 0.32695,0.65389 0.26459,-0.0913 0.26459,0.52916 0,0.11916 -0.0403,0.71323 0,0.79375 0.0558,0.11156 0.2088,0.15303 0.26458,0.26459 0.0832,0.16629 -0.0831,0.89203 0,1.05833 0.0558,0.11156 0.20881,0.15302 0.26458,0.26458 0.0832,0.1663 -0.0831,0.89204 0,1.05834 0.0558,0.11155 0.20881,0.15302 0.26459,0.26458 0.0394,0.0789 0,0.17639 0,0.26458 0,0.0882 0,0.17639 0,0.26459 0,0.44097 0,0.88194 0,1.32291 0,0.0882 0,0.17639 0,0.26459 0,0.0882 -0.0394,0.18569 0,0.26458 0.0558,0.11156 0.2088,0.15302 0.26458,0.26458 0.0394,0.0789 0,0.17639 0,0.26459 0,0.0882 0,0.17638 0,0.26458 0,0.35278 0,0.70555 0,1.05833 0,0.0882 0,0.17639 0,0.26459 0,0.0882 -0.0394,0.18569 0,0.26458 0.0558,0.11156 0.20881,0.15302 0.26458,0.26458 0.076,0.15191 -0.071,1.37447 0,1.5875 0.0394,0.11833 0.20881,0.15303 0.26459,0.26459 0.0845,0.16907 -0.071,0.84537 0,1.05833 0.0624,0.18709 0.20222,0.34208 0.26458,0.52917 0.071,0.21296 -0.0845,0.88925 0,1.05833 0.0558,0.11156 0.20881,0.15302 0.26458,0.26458 0.0395,0.0789 0,0.17639 0,0.26459 0,0.0882 0,0.17638 0,0.26458 0,0.44097 0,0.88194 0,1.32292 0,0.0882 0,0.17638 0,0.26458 0,0.0882 -0.0394,0.1857 0,0.26458 0.0558,0.11156 0.20881,0.15303 0.26459,0.26459 0.0394,0.0789 0,0.17638 0,0.26458 0,0.36304 -0.1389,0.85659 0.26458,1.05833 0.0789,0.0394 0.1857,0.0394 0.26458,0 0.11156,-0.0558 0.15303,-0.2088 0.26459,-0.26458 0.15776,-0.0789 0.3714,0.0789 0.52916,0 0.11156,-0.0558 0.15303,-0.20881 0.26459,-0.26458 0.16629,-0.0832 0.89204,0.0831 1.05833,0 0.11156,-0.0558 0.15303,-0.20881 0.26458,-0.26459 0.21167,-0.10583 0.58209,0.10584 0.79375,0 0.11156,-0.0558 0.15303,-0.2088 0.26459,-0.26458 0.1049,-0.0525 0.73966,0.0541 0.79375,0 0.0624,-0.0624 -0.0789,-0.22514 0,-0.26458 0.15776,-0.0789 0.35278,0 0.52916,0 0.0882,0 0.20223,0.0624 0.26459,0 0.0624,-0.0624 -0.0789,-0.22515 0,-0.26459 0.15776,-0.0789 0.36183,0.0558 0.52916,0 0.11833,-0.0394 0.16081,-0.1954 0.26459,-0.26458 0.16408,-0.10939 0.34208,-0.20222 0.52916,-0.26458 0.0837,-0.0279 0.17639,0 0.26459,0 0.0882,-0.0882 0.15302,-0.20881 0.26458,-0.26459 0.0789,-0.0394 0.1857,0.0394 0.26458,0 0.11156,-0.0558 0.15303,-0.2088 0.26459,-0.26458 0.0789,-0.0394 0.1857,0.0394 0.26458,0 0.22312,-0.11156 0.30605,-0.41761 0.52917,-0.52917 0.77862,-0.38931 -0.34835,0.61293 0.52916,-0.26458 0.0882,-0.0882 0.17639,-0.17639 0.26459,-0.26458 0.0882,-0.0882 0.15302,-0.20881 0.26458,-0.26459 0.0789,-0.0394 0.1857,0.0394 0.26458,0 0.11156,-0.0558 0.15303,-0.2088 0.26459,-0.26458 0.0789,-0.0394 0.1857,0.0394 0.26458,0 0.11156,-0.0558 0.15303,-0.20881 0.26458,-0.26458 0.0789,-0.0395 0.18571,0.0394 0.26459,0 0.11156,-0.0558 0.15302,-0.20881 0.26458,-0.26459 0.0789,-0.0394 0.1857,0.0394 0.26458,0 0.11156,-0.0558 0.15303,-0.2088 0.26459,-0.26458 0.15776,-0.0789 0.3714,0.0789 0.52916,0 0.11156,-0.0558 0.15303,-0.20881 0.26459,-0.26458 0.15776,-0.0789 0.3714,0.0789 0.52916,0 0.11156,-0.0558 0.15303,-0.20881 0.26459,-0.26459 0.15776,-0.0789 0.40444,0.12473 0.52916,0 0.0624,-0.0624 -0.0624,-0.20222 0,-0.26458 0.0624,-0.0624 0.20223,0.0624 0.26459,0 0.0624,-0.0624 0,-0.17639 0,-0.26458 0,-0.17639 0,-0.35278 0,-0.52917 0,-0.0882 0.0394,-0.1857 0,-0.26458 -0.0558,-0.11156 -0.20881,-0.15303 -0.26459,-0.26459 -0.0394,-0.0789 0,-0.17639 0,-0.26458 0,-0.0882 0,-0.17639 0,-0.26458 0,-0.0882 0,-0.17639 0,-0.26459 0,-0.0882 0.0395,-0.1857 0,-0.26458 -0.0558,-0.11156 -0.2088,-0.15303 -0.26458,-0.26458 -0.10583,-0.21167 0.10583,-0.58209 0,-0.79375 -0.0558,-0.11156 -0.22514,-0.14626 -0.26458,-0.26459 -0.022,-0.066 0.0273,-1.29566 0,-1.32291 -0.0624,-0.0624 -0.20222,0.0624 -0.26459,0 -0.12472,-0.12473 0.0789,-0.3714 0,-0.52917 -0.0558,-0.11156 -0.2088,-0.15303 -0.26458,-0.26458 -0.0832,-0.1663 0.0831,-0.89204 0,-1.05834 -0.0558,-0.11156 -0.2088,-0.15302 -0.26458,-0.26458 -0.0789,-0.15777 0.0789,-0.3714 0,-0.52917 -0.0558,-0.11156 -0.20881,-0.15302 -0.26459,-0.26458 -0.10583,-0.21167 0.10584,-0.58208 0,-0.79375 -0.0558,-0.11156 -0.2088,-0.15303 -0.26458,-0.26458 -0.10583,-0.21167 0.10583,-0.58209 0,-0.79375 -0.0558,-0.11156 -0.2088,-0.15303 -0.26458,-0.26459 -0.0859,-0.17188 0.0839,-1.15509 0,-1.32291 -0.0558,-0.11156 -0.20881,-0.15303 -0.26459,-0.26459 -0.10583,-0.21166 0.10584,-0.58208 0,-0.79375 -0.0558,-0.11156 -0.2088,-0.15302 -0.26458,-0.26458 -0.10583,-0.21167 0.10583,-0.58208 0,-0.79375 -0.0558,-0.11156 -0.2088,-0.15303 -0.26458,-0.26458 -0.10584,-0.21167 0.10583,-0.58209 0,-0.793753 -0.0558,-0.111559 -0.22514,-0.146259 -0.26459,-0.264584 -0.0558,-0.167338 0,-0.352779 0,-0.529166 0,-0.0882 0.0394,-0.185701 0,-0.264584 -0.0558,-0.111559 -0.2088,-0.153027 -0.26458,-0.264583 -0.0848,-0.16954 0.0822,-1.423186 0,-1.5875 -0.0558,-0.111559 -0.22514,-0.146259 -0.26458,-0.264583 -0.069,-0.206851 0.0728,-1.4419 0,-1.5875 -0.0558,-0.111559 -0.22514,-0.146259 -0.26459,-0.264584 -0.0454,-0.136308 0,-1.572201 0,-1.852083 0,-0.17639 0.0558,-0.361831 0,-0.529167 -0.0394,-0.118326 -0.2088,-0.153027 -0.26458,-0.264583 -0.0803,-0.160663 0.0803,-1.42684 0,-1.5875 -0.0558,-0.111559 -0.2088,-0.153027 -0.26458,-0.264583 -0.0845,-0.169077 0.071,-0.845373 0,-1.058333 -0.0624,-0.18709 -0.20222,-0.34208 -0.26459,-0.529167 -0.0607,-0.181991 0.0781,-0.637641 0,-0.79375 -0.0558,-0.111559 -0.2088,-0.153027 -0.26458,-0.264583 -0.0781,-0.156113 0.0607,-0.611762 0,-0.79375 -0.74952,-1.499048 0.0986,0.394417 -0.26458,-1.058334 -0.0478,-0.191323 -0.20222,-0.34208 -0.26459,-0.529166 -0.0607,-0.181991 0.0781,-0.637641 0,-0.79375 -0.0558,-0.111559 -0.22514,-0.146259 -0.26458,-0.264584 -0.0816,-0.244678 0.0872,-1.413184 0,-1.5875 -0.0558,-0.111559 -0.2088,-0.153027 -0.26458,-0.264583 -0.0831,-0.166299 0.0832,-0.892037 0,-1.058333 -0.0558,-0.111559 -0.20881,-0.153027 -0.26459,-0.264584 -0.0701,-0.140292 0.06,-1.14292 0,-1.322916 -0.0394,-0.118327 -0.2088,-0.153027 -0.26458,-0.264584 -0.0835,-0.166917 0.0835,-1.156001 0,-1.322916 -0.0558,-0.111559 -0.2088,-0.153027 -0.26458,-0.264584 -0.0835,-0.166917 0.0835,-1.156001 0,-1.322916 -0.0558,-0.111559 -0.20881,-0.153027 -0.26459,-0.264584 -0.0394,-0.07888 0,-0.176389 0,-0.264583 0,-0.0882 0,-0.17639 0,-0.264583 0,-0.529167 0,-1.058334 0,-1.5875 0,-0.0882 0,-0.17639 0,-0.264584 0,-0.0882 0.0394,-0.1857 0,-0.264583 -0.0558,-0.111559 -0.2088,-0.153027 -0.26458,-0.264583 -0.0859,-0.171882 0.0839,-1.155089 0,-1.322917 -0.0558,-0.111559 -0.2088,-0.153027 -0.26458,-0.264583 -0.10584,-0.211667 0.10583,-0.582084 0,-0.79375 -0.0558,-0.111559 -0.22514,-0.146259 -0.26459,-0.264584 -0.06,-0.179998 0.0702,-1.182626 0,-1.322916 -0.0558,-0.111559 -0.2088,-0.153027 -0.26458,-0.264584 -0.0394,-0.07888 0,-0.176389 0,-0.264583 0,-0.113969 0.0358,-1.515904 0,-1.5875 -0.0558,-0.111559 -0.2088,-0.153027 -0.26458,-0.264583 -0.0394,-0.07889 0,-0.17639 0,-0.264584 0,-0.119697 0.0352,-1.516991 0,-1.5875 -0.0558,-0.111558 -0.20881,-0.153027 -0.26459,-0.264583 -0.0788,-0.157525 0.0743,-1.100156 0,-1.322916 -0.0624,-0.18709 -0.20222,-0.34208 -0.26458,-0.529167 -0.0783,-0.234802 0.0866,-1.149665 0,-1.322917 -0.0558,-0.111559 -0.2088,-0.153027 -0.26458,-0.264583 -0.0832,-0.166299 0.0831,-0.892038 0,-1.058333 -0.0558,-0.111559 -0.22514,-0.146259 -0.26459,-0.264584 0,-1.20446 0.12473,-0.01513 -0.26458,-0.79375 -0.0394,-0.07888 0,-0.17639 0,-0.264583 0,-0.17639 0.0558,-0.361831 0,-0.529167 -0.0394,-0.118327 -0.2088,-0.153027 -0.26458,-0.264583 -0.0789,-0.157768 0.0558,-0.361831 0,-0.529167 -0.0624,-0.187089 -0.20222,-0.34208 -0.26459,-0.529166 -0.13229,-0.396875 0.26459,-0.264584 0,-0.79375 -0.0394,-0.07889 -0.20222,0.06236 -0.26458,0 -0.0624,-0.06236 0,-0.17639 0,-0.264584 0,-0.111302 0.0394,-1.508794 0,-1.5875 -0.0558,-0.111559 -0.2088,-0.153027 -0.26458,-0.264583 -0.10584,-0.211667 0.10583,-0.582083 0,-0.79375 -0.0558,-0.111559 -0.20881,-0.153027 -0.26459,-0.264583 -0.10583,-0.211667 0.10584,-0.582084 0,-0.79375 -0.0558,-0.111559 -0.2088,-0.153027 -0.26458,-0.264584 -0.0832,-0.166298 0.0831,-0.892037 0,-1.058333 -0.0558,-0.111559 -0.2088,-0.153027 -0.26458,-0.264583 -0.10584,-0.211667 0.10583,-0.582084 0,-0.79375 -0.0558,-0.111559 -0.20881,-0.153027 -0.26459,-0.264584 -0.10583,-0.211666 0.10584,-0.582083 0,-0.79375 -0.0558,-0.111559 -0.2088,-0.153027 -0.26458,-0.264583 -0.10583,-0.211667 0.10583,-0.582083 0,-0.79375 -0.0558,-0.111559 -0.2088,-0.153027 -0.26458,-0.264583 -0.0789,-0.157769 0.0789,-0.371401 0,-0.529167 -0.0558,-0.111559 -0.20881,-0.153027 -0.26459,-0.264583 -0.0789,-0.157769 0.12473,-0.404442 0,-0.529167 -0.0624,-0.06237 -0.20222,0.06236 -0.26458,0 -0.0541,-0.05409 0.0525,-0.688845 0,-0.79375 -0.0558,-0.111559 -0.2088,-0.153027 -0.26458,-0.264583 -0.10584,-0.211667 0.10583,-0.582084 0,-0.79375 -0.0558,-0.111559 -0.20881,-0.153027 -0.26459,-0.264584 -0.0394,-0.07888 0.0394,-0.1857 0,-0.264583 -0.0558,-0.111559 -0.2088,-0.153027 -0.26458,-0.264583 -0.0394,-0.07889 0.0624,-0.202221 0,-0.264584 -0.0624,-0.06236 -0.1857,0.03944 -0.26458,0 -0.11156,-0.05578 -0.15303,-0.208806 -0.26459,-0.264583 -0.0789,-0.03944 -0.20222,0.06236 -0.26458,0 -0.0624,-0.06236 0.0624,-0.202221 0,-0.264583 -0.12472,-0.124727 -0.3714,0.07888 -0.52917,0 -0.11155,-0.05578 -0.15302,-0.208807 -0.26458,-0.264584 -0.15776,-0.07888 -0.3714,0.07888 -0.52917,0 -0.22311,-0.111558 -0.30605,-0.41761 -0.52916,-0.529166 -0.16692,-0.08346 -1.156,0.08346 -1.32292,0 -0.11156,-0.05578 -0.15302,-0.208807 -0.26458,-0.264584 -0.0789,-0.03944 -0.17639,0 -0.26459,0 -0.11129,0 -1.50879,-0.03935 -1.5875,0 -0.11155,0.05578 -0.13985,0.264584 -0.26458,0.264584 -0.12472,0 -0.15302,-0.208807 -0.26458,-0.264584 -0.15777,-0.07888 -0.52917,0.176388 -0.52917,0 0,-0.0882 0.26458,0.08819 0.26458,0 0,-0.124727 -0.13985,-0.264583 -0.26458,-0.264583 -0.12472,0 -0.17639,0.352777 -0.26458,0.264583 -0.0882,-0.0882 0.35278,-0.352779 0.26458,-0.264583 -0.17639,0.176387 -0.35278,0.352777 -0.52917,0.529167 -0.0882,0.08819 -0.2088,0.153024 -0.26458,0.264583 -0.0394,0.07888 0.0624,0.202219 0,0.264583 -0.0624,0.06236 -0.20222,-0.06236 -0.26458,0 -0.0624,0.06236 0.0394,0.185698 0,0.264584 -0.0558,0.111556 -0.20881,0.153024 -0.26459,0.264583 -0.0394,0.07888 0.0395,0.185698 0,0.264583 -0.0558,0.111557 -0.2088,0.153025 -0.26458,0.264584 -0.0789,0.157766 0.0789,0.371398 0,0.529166 -0.0558,0.111557 -0.2088,0.153025 -0.26458,0.264584 -0.0525,0.104904 0.0541,0.739658 0,0.79375 -0.0624,0.06236 -0.20222,-0.06236 -0.26459,0 -0.0624,0.06236 0,0.176387 0,0.264583 0,0.659 -0.0394,0.185698 0.52917,1.322917 z"
       id="path8449"
       inkscape:connector-curvature="0" />
    <path
       style="fill:#000000;fill-opacity:1;stroke:none;stroke-width:0.26458332px;stroke-linecap:butt;stroke-linejoin:miter;stroke-opacity:1"
       d="m 38.629166,45.381251 c -0.812731,-0.32171 -1.542521,-0.264584 -2.38125,-0.264584 -0.119158,0 -0.713229,-0.04026 -0.79375,0 -0.111559,0.05578 -0.153024,0.208804 -0.264583,0.264584 -0.09568,0.04784 -1.138888,0 -1.322917,0 -0.17639,0 -0.352777,0 -0.529166,0 -0.08819,0 -0.185701,0.03944 -0.264584,0 -0.111559,-0.05578 -0.146259,-0.225142 -0.264583,-0.264584 -0.142243,-0.04742 -0.834324,0 -1.058333,0 -1.146527,0 -2.293057,0 -3.439584,0 -0.440973,0 -0.881943,0 -1.322916,0 -0.08819,0 -0.17639,0 -0.264584,0 -0.08819,0 -0.1857,0.03944 -0.264583,0 -0.111558,-0.05578 -0.153025,-0.208806 -0.264583,-0.264583 -0.239103,-0.119552 -0.683649,0.227883 -0.79375,0.264583 -0.166529,0.05551 -1.084431,0 -1.322917,0 -0.119157,0 -0.713228,-0.04026 -0.79375,0 -0.111558,0.05578 -0.208804,0.153025 -0.264583,0.264584 -0.03944,0.07888 0.08819,0.264583 0,0.264583 -0.0882,0 0,-0.352779 0,-0.264583 0,0.44097 0,0.881943 0,1.322916 0,0.08819 0,0.176388 0,0.264584 0,0.08819 -0.03944,0.185698 0,0.264583 0.05578,0.111556 0.208804,0.153024 0.264583,0.264583 0.07806,0.15611 -0.06066,0.611759 0,0.79375 0.06236,0.187087 0.202221,0.342078 0.264583,0.529167 0.02789,0.08367 -0.03944,0.185698 0,0.264583 0.05578,0.111557 0.208805,0.153025 0.264584,0.264584 0.03944,0.07888 -0.03944,0.185698 0,0.264583 0.05578,0.111556 0.208804,0.153024 0.264583,0.264583 0.03944,0.07888 -0.03944,0.185698 0,0.264584 0.05578,0.111556 0.208804,0.153024 0.264583,0.264583 0.03944,0.07888 -0.03944,0.185698 0,0.264583 0.05578,0.111557 0.208804,0.153025 0.264584,0.264584 0.03944,0.07888 -0.06236,0.202218 0,0.264583 0.06236,0.06236 0.20222,-0.06236 0.264583,0 0.06236,0.06236 -0.03944,0.185698 0,0.264583 0.05578,0.111557 0.208804,0.153025 0.264583,0.264584 0.03944,0.07888 -0.03944,0.185697 0,0.264583 0.05578,0.111556 0.208804,0.153024 0.264584,0.264583 0.03944,0.07888 -0.03944,0.185698 0,0.264584 0.05578,0.111556 0.208804,0.153024 0.264583,0.264583 0.03944,0.07888 -0.03944,0.185698 0,0.264583 0.111558,0.223115 0.417609,0.306049 0.529167,0.529167 0.03944,0.07888 -0.06236,0.202218 0,0.264583 0.06236,0.06236 0.20222,-0.06236 0.264583,0 0.06236,0.06236 -0.03944,0.185698 0,0.264584 0.111559,0.223115 0.417608,0.306048 0.529167,0.529166 0.03944,0.07888 -0.03944,0.185698 0,0.264584 0.05578,0.111556 0.176389,0.176387 0.264583,0.264583 0.155612,0.155612 0.997072,0.93581 1.058333,1.058333 0.03944,0.07888 -0.06236,0.202219 0,0.264584 0.547434,0.54743 -0.0214,-0.836552 0.529167,0.264583 0,0.705554 -0.08819,-0.0882 0.264583,0.264583 0.06236,0.06236 -0.06236,0.202219 0,0.264584 0.06236,0.06236 0.202221,-0.06236 0.264584,0 0.06236,0.06236 -0.06236,0.202218 0,0.264583 0.06236,0.06236 0.202221,-0.06236 0.264583,0 0.06236,0.06236 -0.06236,0.202218 0,0.264583 0.547433,0.547431 -0.02141,-0.836551 0.529167,0.264584 0.03944,0.07888 -0.06236,0.202218 0,0.264583 0.06236,0.06236 0.1857,-0.03944 0.264583,0 0.3175,0.15875 0.47625,0.635 0.79375,0.79375 0.07888,0.03944 0.1857,-0.03944 0.264583,0 0.111559,0.05578 0.153025,0.208804 0.264584,0.264583 0.07888,0.03944 0.1857,-0.03944 0.264583,0 0.3175,0.15875 0.47625,0.635 0.79375,0.79375 0.07888,0.03944 0.1857,-0.03944 0.264583,0 0.111559,0.05578 0.153025,0.208804 0.264584,0.264584 0.07888,0.03944 0.1857,-0.03945 0.264583,0 0.111559,0.05578 0.153024,0.208803 0.264583,0.264583 0.07888,0.03944 0.185701,-0.03944 0.264584,0 0.111558,0.05578 0.153024,0.208804 0.264583,0.264583 0.08052,0.04026 0.674592,0 0.79375,0 0.08819,0 0.17639,0 0.264583,0 0.08819,0 0.202221,0.06236 0.264584,0 0.06236,-0.06236 -0.06236,-0.202221 0,-0.264583 0.06236,-0.06236 0.202221,0.06236 0.264583,0 0.06236,-0.06236 -0.03944,-0.185701 0,-0.264583 0.05578,-0.111559 0.208804,-0.153028 0.264583,-0.264584 0.03944,-0.07888 -0.03944,-0.1857 0,-0.264583 0.05578,-0.111559 0.208804,-0.153027 0.264584,-0.264583 0.105833,-0.211667 -0.105834,-0.582084 0,-0.79375 0.05578,-0.111559 0.208803,-0.153027 0.264583,-0.264584 0.08346,-0.166917 -0.08346,-1.156001 0,-1.322916 0.05578,-0.111559 0.208804,-0.153027 0.264583,-0.264584 0.03526,-0.07051 0,-1.467805 0,-1.5875 0,-0.0882 -0.03944,-0.1857 0,-0.264583 0.05578,-0.111559 0.208804,-0.153027 0.264584,-0.264583 0.08346,-0.166918 -0.08346,-1.156002 0,-1.322917 0.05578,-0.111559 0.208803,-0.153027 0.264583,-0.264583 0.105833,-0.211667 -0.105833,-0.582084 0,-0.79375 0.05578,-0.111559 0.208804,-0.153027 0.264583,-0.264584 0.08315,-0.166298 -0.08315,-0.892037 0,-1.058333 0.05578,-0.111559 0.208804,-0.153027 0.264584,-0.264583 0.08315,-0.166299 -0.08315,-0.892038 0,-1.058334 0.05578,-0.111559 0.208803,-0.153027 0.264583,-0.264583 0.07176,-0.143534 -0.0724,-0.985938 0,-1.058333 0.06236,-0.06236 0.202221,0.06236 0.264583,0 0.0724,-0.0724 -0.07176,-0.914802 0,-1.058334 0.05578,-0.111559 0.208804,-0.153027 0.264584,-0.264583 0.03944,-0.07888 0,-0.17639 0,-0.264583 0,-0.690666 -0.04335,-0.70258 -0.264584,-1.5875 z"
       id="path7898"
       inkscape:connector-curvature="0" />
    <path
       style="fill:#000021;fill-opacity:1;stroke:none;stroke-width:0.26458332px;stroke-linecap:butt;stroke-linejoin:miter;stroke-opacity:1"
       d="m 136.78958,53.847917 c 0.78884,0.254752 -0.19721,0.928497 0,1.322917 0.0558,0.111556 0.20881,0.153024 0.26458,0.264583 0.0803,0.160661 -0.0803,1.426837 0,1.5875 0.0558,0.111557 0.20881,0.153025 0.26459,0.264584 0.10583,0.211666 -0.10584,0.582083 0,0.79375 0.0558,0.111556 0.2088,0.153024 0.26458,0.264583 0.10583,0.211667 -0.10583,0.582083 0,0.79375 0.0558,0.111556 0.20881,0.153024 0.26458,0.264583 0.0394,0.07888 0,0.176387 0,0.264584 0,0.08819 0,0.176387 0,0.264583 0,0.119155 -0.0403,0.713227 0,0.79375 0.0558,0.111556 0.20881,0.153024 0.26459,0.264583 0.0835,0.166915 -0.0835,1.155999 0,1.322917 0.0558,0.111556 0.2088,0.153024 0.26458,0.264583 0.0718,0.143531 -0.0724,0.985936 0,1.058334 0.0624,0.06236 0.20222,-0.06236 0.26458,0 0.0783,0.07828 -0.0819,0.894445 0,1.058333 0.0558,0.111556 0.20881,0.153024 0.26459,0.264583 0.10583,0.211667 -0.10584,0.582083 0,0.79375 0.0558,0.111556 0.2088,0.153025 0.26458,0.264583 0.0394,0.07888 -0.0394,0.185698 0,0.264584 0.0558,0.111556 0.20881,0.153024 0.26458,0.264583 0.0789,0.157766 -0.12472,0.40444 0,0.529167 0.0624,0.06236 0.20223,-0.06236 0.26459,0 0.12472,0.124724 -0.0789,0.371398 0,0.529166 0.0558,0.111557 0.17639,0.176388 0.26458,0.264584 0.0882,0.08819 0.15303,0.208804 0.26458,0.264583 0.0789,0.03944 0.20223,-0.06236 0.26459,0 0.0624,0.06236 -0.0624,0.202219 0,0.264583 0.0106,0.01064 0.96117,0 1.05833,0 0.52917,0 1.05833,0 1.5875,0 0.0882,0 0.17639,0 0.26458,0 0.0882,0 0.20223,0.06236 0.26459,0 0.0624,-0.06236 -0.0624,-0.202221 0,-0.264583 0.0541,-0.05409 0.68884,0.05245 0.79375,0 0.11156,-0.05578 0.15302,-0.208806 0.26458,-0.264583 0.15777,-0.07889 0.3714,0.07888 0.52917,0 0.11156,-0.05578 0.15302,-0.208807 0.26458,-0.264584 0.0789,-0.03944 0.1857,0.03944 0.26458,0 0.22312,-0.111558 0.30606,-0.41761 0.52917,-0.529166 0.15777,-0.07889 0.3714,0.07888 0.52917,0 0.11156,-0.05578 0.15302,-0.208807 0.26458,-0.264584 0.0789,-0.03944 0.1857,0.03944 0.26458,0 0.11156,-0.05578 0.15303,-0.208806 0.26459,-0.264583 0.0789,-0.03944 0.1857,0.03944 0.26458,0 0.11156,-0.05578 0.15303,-0.208806 0.26458,-0.264583 0.0789,-0.03944 0.20223,0.06236 0.26459,0 0.0624,-0.06236 -0.0624,-0.202221 0,-0.264584 0.0624,-0.06236 0.1857,0.03944 0.26458,0 0.11156,-0.05578 0.15303,-0.208806 0.26458,-0.264583 0.0789,-0.03944 0.20223,0.06236 0.26459,0 0.0624,-0.06236 -0.0624,-0.202221 0,-0.264583 0.0624,-0.06236 0.1857,0.03944 0.26458,0 0.0507,-0.02532 1.03301,-1.007687 1.05833,-1.058333 0.0394,-0.07889 -0.0624,-0.202222 0,-0.264584 0.0624,-0.06236 0.20223,0.06236 0.26459,0 0.54743,-0.547433 -0.83655,0.02141 0.26458,-0.529166 0.0789,-0.03945 0.20222,0.06236 0.26458,0 0.0624,-0.06236 -0.0394,-0.185701 0,-0.264584 0.13018,-0.260358 0.92816,-0.797978 1.05834,-1.058333 0.0394,-0.07889 -0.0624,-0.202221 0,-0.264583 0.0624,-0.06236 0.20222,0.06236 0.26458,0 0.0624,-0.06236 -0.0394,-0.185701 0,-0.264584 0.0558,-0.111559 0.20881,-0.153027 0.26458,-0.264583 0.0395,-0.07889 -0.0624,-0.202221 0,-0.264583 0.0624,-0.06236 0.20223,0.06236 0.26459,0 0.0624,-0.06236 -0.0394,-0.185701 0,-0.264584 0.0558,-0.111559 0.2088,-0.153027 0.26458,-0.264583 0.0394,-0.07889 -0.0624,-0.202221 0,-0.264583 0.0624,-0.06236 0.20222,0.06236 0.26458,0 0.0624,-0.06236 -0.0394,-0.185701 0,-0.264584 0.0558,-0.111559 0.20881,-0.153027 0.26459,-0.264583 0.0394,-0.07889 -0.0394,-0.185701 0,-0.264583 0.0558,-0.111559 0.2088,-0.153027 0.26458,-0.264584 0.0394,-0.07888 -0.0394,-0.1857 0,-0.264583 0.11156,-0.223118 0.41761,-0.306052 0.52917,-0.529167 0.0394,-0.07888 -0.0394,-0.1857 0,-0.264583 0.11156,-0.223118 0.41761,-0.306052 0.52916,-0.529167 0.0395,-0.07888 -0.0394,-0.1857 0,-0.264583 0.0558,-0.111559 0.20881,-0.153027 0.26459,-0.264583 0.0394,-0.07889 -0.0394,-0.185701 0,-0.264584 0.0558,-0.111559 0.2088,-0.153027 0.26458,-0.264583 0.0394,-0.07889 -0.0394,-0.185701 0,-0.264583 0.0558,-0.111559 0.20881,-0.153027 0.26458,-0.264584 0.10584,-0.211666 -0.10583,-0.582083 0,-0.79375 0.0558,-0.111559 0.20881,-0.153027 0.26459,-0.264583 0.0394,-0.07889 0,-0.17639 0,-0.264583 0,-0.0882 0,-0.17639 0,-0.264584 0,-0.352779 0,-0.705556 0,-1.058333 0,-0.264583 0,-0.529167 0,-0.79375 0,-0.0882 -0.0882,-0.264583 0,-0.264583 0.0882,0 0.0624,0.326945 0,0.264583 -0.13945,-0.139449 -0.12514,-0.389721 -0.26459,-0.529167 -0.0624,-0.06236 -0.17639,0 -0.26458,0 -0.1827,0 -0.97789,-0.04022 -1.05833,0 -0.65389,0.326946 0.0913,0.264584 -0.52917,0.264584 -0.18403,0 -1.22723,-0.04784 -1.32292,0 -0.11155,0.05578 -0.14625,0.225139 -0.26458,0.264583 -0.14632,0.04877 -1.32105,0 -1.5875,0 -0.0882,0 -0.1857,-0.03944 -0.26458,0 -0.11156,0.05578 -0.15303,0.208804 -0.26459,0.264583 -0.0957,0.04784 -1.13888,0 -1.32291,0 -1.14653,0 -2.29306,0 -3.43959,0 -0.62049,0 0.12473,-0.06236 -0.52916,0.264584 -0.0785,0.03923 -1.33159,0 -1.5875,0 -0.1197,0 -1.51699,0.03525 -1.5875,0 -0.11156,-0.05578 -0.14626,-0.225142 -0.26459,-0.264584 -0.251,-0.08367 -0.52916,0 -0.79375,0 -0.44097,0 -0.88194,0 -1.32291,0 -0.11916,0 -0.71323,0.04026 -0.79375,0 -0.43795,-0.218974 -0.0711,-0.505476 -0.79375,-0.264583 -0.11833,0.03944 -0.16719,0.186666 -0.26459,0.264583 -0.34434,0.275471 -0.70555,0.529167 -1.05833,0.79375 z"
       id="path8443"
       inkscape:connector-curvature="0" />
    <path
       style="fill:#000000;fill-opacity:1;stroke:none;stroke-width:0.26458332px;stroke-linecap:butt;stroke-linejoin:miter;stroke-opacity:1"
       d="m 138.1125,62.05 c 0,2.636967 -0.24945,0.294847 0.26458,1.322917 0.0789,0.157766 -0.0789,0.371398 0,0.529167 0.0558,0.111556 0.22515,0.146256 0.26459,0.264583 0.0558,0.167336 -0.0789,0.371398 0,0.529166 0.0394,0.07888 0.20222,-0.06236 0.26458,0 0.12473,0.124725 -0.0789,0.371399 0,0.529167 0.0558,0.111556 0.20881,0.153025 0.26458,0.264583 0.0394,0.07888 -0.0394,0.185698 0,0.264584 0.0558,0.111556 0.20881,0.153024 0.26459,0.264583 0.10583,0.211667 -0.10584,0.582083 0,0.79375 0.0558,0.111556 0.2088,0.153025 0.26458,0.264583 0.0394,0.07888 -0.0394,0.185698 0,0.264584 0.0558,0.111556 0.20881,0.153024 0.26458,0.264583 0.10584,0.211667 -0.10583,0.582083 0,0.79375 0.0558,0.111556 0.20881,0.153025 0.26459,0.264583 0.0789,0.157766 -0.0789,0.371399 0,0.529167 0.0558,0.111556 0.2088,0.153025 0.26458,0.264583 0.10583,0.211667 -0.10583,0.582084 0,0.79375 0.32695,0.653892 0.26458,-0.09133 0.26458,0.529167 0,0.08819 0,0.176387 0,0.264583 0,0.08819 -0.0394,0.185698 0,0.264584 0.0558,0.111556 0.20881,0.153024 0.26459,0.264583 0.0789,0.157766 -0.0789,0.371398 0,0.529167 0.0558,0.111556 0.2088,0.153024 0.26458,0.264583 0.0912,0.182428 -0.19963,0.79375 0.26458,0.79375 0.16113,0 0.69305,-0.327753 0.79375,-0.529167 0.0789,-0.157768 -0.0789,-0.371401 0,-0.529166 0.0558,-0.111559 0.20881,-0.153027 0.26459,-0.264584 0.0831,-0.166298 -0.0832,-0.892037 0,-1.058333 0.0558,-0.111559 0.2088,-0.153027 0.26458,-0.264583 0.0394,-0.07889 0,-0.17639 0,-0.264584 0,-0.0882 0,-0.176389 0,-0.264583 0,-0.184028 -0.0478,-1.227235 0,-1.322917 0.0558,-0.111558 0.32036,-0.153027 0.26458,-0.264583 -0.34419,-0.688401 -0.44995,-0.09269 -0.79375,-0.264583 -0.11155,-0.05578 -0.15302,-0.208807 -0.26458,-0.264584 -0.0789,-0.03944 -0.20222,0.06236 -0.26458,0 -0.0624,-0.06236 0.0394,-0.1857 0,-0.264583 -0.11156,-0.223118 -0.41761,-0.306051 -0.52917,-0.529167 -0.0394,-0.07888 0.0624,-0.202221 0,-0.264583 -0.0624,-0.06236 -0.20222,0.06236 -0.26458,0 -0.0624,-0.06236 0.0394,-0.1857 0,-0.264583 -0.0558,-0.111559 -0.20881,-0.153027 -0.26459,-0.264584 -0.0394,-0.07888 0.0624,-0.202221 0,-0.264583 -0.0624,-0.06236 -0.20222,0.06236 -0.26458,0 -0.0624,-0.06236 0.0394,-0.1857 0,-0.264583 -0.11156,-0.223118 -0.41761,-0.306052 -0.52917,-0.529167 -0.0394,-0.07888 0.0395,-0.1857 0,-0.264583 -0.0558,-0.111559 -0.2088,-0.153027 -0.26458,-0.264584 -0.0394,-0.07888 0.0394,-0.1857 0,-0.264583 -0.0558,-0.111559 -0.2088,-0.153027 -0.26458,-0.264583 -0.0789,-0.157769 0.0789,-0.371401 0,-0.529167 -0.0558,-0.111559 -0.20881,-0.153027 -0.26459,-0.264583 -0.0789,-0.157769 0.12473,-0.404442 0,-0.529167 -0.31181,-0.311817 -0.70555,-0.529166 -1.05833,-0.79375 z"
       id="path8445"
       inkscape:connector-curvature="0" />
    <path
       style="fill:none;stroke:#000000;stroke-width:0.26458332px;stroke-linecap:butt;stroke-linejoin:miter;stroke-opacity:1"
       d="m 100.54167,164.17917 c -0.17639,-0.35278 -0.29252,-0.74281 -0.52917,-1.05834 -0.001,-0.002 -0.820673,0 -1.058335,0"
       id="path8447"
       inkscape:connector-curvature="0" />
    <path
       style="fill:#5b7a98;fill-opacity:1;stroke:none;stroke-width:0.26458332px;stroke-linecap:butt;stroke-linejoin:miter;stroke-opacity:1"
       d="m 38.629166,45.381251 c 1.675694,-0.881946 3.333382,-1.798984 5.027083,-2.645834 0.07888,-0.03944 0.17639,0 0.264584,0 0.08819,0 0.1857,-0.03944 0.264583,0 0.111559,0.05578 0.146259,0.22514 0.264583,0.264584 0.167339,0.05578 0.352777,0 0.529167,0 0.620496,0 -0.124724,0.06236 0.529167,-0.264584 0.01384,-0.0069 0.779907,-0.0069 0.79375,0 0.111559,0.05578 0.153024,0.208804 0.264583,0.264584 0.07572,0.03786 1.181574,0 1.322917,0 0.970139,0 1.940277,0 2.910416,0 0.104593,0 1.209919,-0.0565 1.322917,0 0.111559,0.05578 0.153024,0.208804 0.264583,0.264583 0.07888,0.03944 0.17639,0 0.264584,0 0.08819,0 0.176389,0 0.264583,0 0.440973,0 0.881944,0 1.322917,0 0.08819,0 0.176389,0 0.264583,0 0.08819,0 0.1857,-0.03944 0.264583,0 0.111559,0.05578 0.139859,0.264583 0.264584,0.264583 0.124724,0 0.153024,-0.208806 0.264583,-0.264583 0.07888,-0.03944 0.17639,0 0.264583,0 0.17639,0 0.371401,-0.07888 0.529167,0 0.07888,0.03944 -0.07888,0.225139 0,0.264583 0.157766,0.07888 0.352777,0 0.529167,0 0.529166,0 1.058333,0 1.5875,0 0.176389,0 0.352776,0 0.529166,0 0.08819,0 0.180914,-0.02789 0.264584,0 0.187089,0.06236 0.342077,0.202219 0.529166,0.264584 0.212963,0.07099 0.88926,-0.08454 1.058334,0 0.111558,0.05578 0.153024,0.208804 0.264583,0.264583 0.211667,0.105833 0.582083,-0.105833 0.79375,0 0.111559,0.05578 0.153024,0.208804 0.264583,0.264583 0.160661,0.08033 1.42684,-0.08033 1.5875,0 0.111559,0.05578 0.153025,0.208804 0.264584,0.264584 0.08052,0.04026 0.674592,0 0.79375,0 0.529166,0 1.058333,0 1.587499,0 0.264584,0 0.542746,-0.08367 0.79375,0 0.118325,0.03944 0.153025,0.208804 0.264584,0.264583 0.06841,0.0342 1.399963,0 1.5875,0 0.08819,0 0.1857,-0.03944 0.264583,0 0.111559,0.05578 0.153025,0.208804 0.264583,0.264583 0.08044,0.04022 0.875634,0 1.058334,0 0.61736,0 1.234723,0 1.852083,0 0.17639,0 0.352777,0 0.529167,0 0.08819,0 0.1857,-0.03944 0.264583,0 0.111559,0.05578 0.153024,0.208804 0.264583,0.264584 0.07888,0.03944 0.17639,0 0.264584,0 0.08819,0 0.17639,0 0.264583,0 0.529167,0 1.058333,0 1.5875,0 0.08819,0 0.17639,0 0.264583,0 0.08819,0 0.185701,-0.03944 0.264584,0 0.111559,0.05578 0.153024,0.208804 0.264583,0.264583 0.151911,0.07595 1.374465,-0.07101 1.5875,0 0.118324,0.03944 0.153024,0.208804 0.264583,0.264583 0.07888,0.03944 0.17639,0 0.264584,0 0.266448,0 1.44118,-0.04877 1.5875,0 0.118324,0.03944 0.153024,0.208804 0.264583,0.264584 0.166918,0.08346 1.155999,-0.08346 1.322917,0 0.111559,0.05578 0.153024,0.208804 0.264583,0.264583 0.0593,0.02965 0.99546,0 1.058333,0 0.529167,0 1.058334,0 1.5875,0 0.08819,0 0.17639,0 0.264584,0 0.08819,0 0.1857,-0.03944 0.264583,0 0.111559,0.05578 0.146259,0.225139 0.264583,0.264583 0.251005,0.08367 0.529167,0 0.79375,0 1.058334,0 2.116667,0 3.175,0 0.141343,0 1.247193,-0.03786 1.322917,0 0.111559,0.05578 0.153024,0.208804 0.264583,0.264584 0.08052,0.04026 0.674592,0 0.79375,0 0.705557,0 1.41111,0 2.116667,0 0.06287,0 0.999032,-0.02965 1.058333,0 0.111559,0.05578 0.153025,0.208804 0.264583,0.264583 0.07888,0.03944 0.17639,0 0.264584,0 0.08819,0 0.17639,0 0.264583,0 0.352777,0 0.705557,0 1.058333,0 0.08819,0 0.17639,0 0.264584,0 0.08819,0 0.1857,-0.03944 0.264583,0 0.111559,0.05578 0.146259,0.225139 0.264583,0.264583 0.244677,0.08156 1.413185,-0.08716 1.5875,0 0.111559,0.05578 0.153025,0.208804 0.264584,0.264584 0.16066,0.08033 1.426841,-0.08033 1.587501,0 0.11156,0.05578 0.15302,0.208804 0.26458,0.264583 0.0789,0.03944 0.17639,0 0.26459,0 0.1113,0 1.50879,-0.03935 1.5875,0 0.11155,0.05578 0.15302,0.208804 0.26458,0.264583 0.0957,0.04784 1.13889,0 1.32292,0 1.14652,0 2.29305,0 3.43958,0 0.44097,0 0.88194,0 1.32292,0 0.17639,0 0.35277,0 0.52916,0 0.0882,0 0.1857,-0.03944 0.26459,0 0.11155,0.05578 0.15302,0.208804 0.26458,0.264584 0.0977,0.04883 1.35703,0 1.5875,0 1.14653,0 2.29305,0 3.43958,0 0.18403,0 1.22724,-0.04784 1.32292,0 0.11156,0.05578 0.14626,0.225139 0.26458,0.264583 0.14632,0.04877 1.32105,0 1.5875,0 1.05834,0 2.11667,0 3.175,0 2.82222,0 5.64445,0 8.46667,0 0.62049,0 -0.12473,-0.06236 0.52917,0.264583 0.0805,0.04026 0.67459,0 0.79375,0 0.22172,0 1.21046,0.05622 1.32291,0 0.0789,-0.03944 -0.0624,-0.202221 0,-0.264583 0.12473,-0.124727 0.3714,0.07888 0.52917,0 0.11156,-0.05578 0.15302,-0.208806 0.26458,-0.264583 0.15777,-0.07889 0.40444,0.124724 0.52917,0 0.0624,-0.06236 -0.0624,-0.202221 0,-0.264584 0.0624,-0.06236 0.1857,0.03944 0.26458,0 0.12252,-0.06126 0.90272,-0.902721 1.05833,-1.058333 0.20791,-0.207902 1.23865,-1.154385 1.32292,-1.322917 0.0394,-0.07888 -0.0624,-0.202221 0,-0.264583 0.0624,-0.06236 0.20222,0.06236 0.26458,0 0.0624,-0.06236 -0.0624,-0.202221 0,-0.264583 0.54744,-0.547434 -0.0214,0.836549 0.52917,-0.264584 0.0394,-0.07888 -0.0624,-0.202221 0,-0.264583 0.0624,-0.06236 0.20222,0.06236 0.26458,0 0.0624,-0.06236 -0.0394,-0.1857 0,-0.264583 0.11156,-0.223118 0.41761,-0.306052 0.52917,-0.529167 0.0394,-0.07888 -0.0624,-0.202221 0,-0.264583 0.0624,-0.06236 0.20222,0.06236 0.26458,0 0.0624,-0.06236 -0.0394,-0.185701 0,-0.264584 0.0558,-0.111558 0.26459,-0.139858 0.26459,-0.264583 0,-0.124727 -0.26459,-0.139859 -0.26459,-0.264583 0,-0.430274 0.49577,-0.0668 0.26459,-0.529167 -0.0558,-0.111559 -0.26459,-0.38931 -0.26459,-0.264583 0,0.197207 0.26459,0.726374 0.26459,0.529166 0,-0.278897 -0.10988,-0.561697 -0.26459,-0.79375 -0.0978,-0.146767 -0.3714,0.07888 -0.52916,0 -0.11156,-0.05578 -0.15303,-0.208806 -0.26459,-0.264583 -0.21166,-0.105833 -0.58208,0.105833 -0.79375,0 -0.11155,-0.05578 -0.15302,-0.208806 -0.26458,-0.264583 -0.0805,-0.04026 -0.67459,0 -0.79375,0 -1.5875,0 -3.175,0 -4.7625,0 -0.70555,0 -1.41111,0 -2.11666,0 -0.11916,0 -0.71323,0.04026 -0.79375,0 -0.11156,-0.05578 -0.15303,-0.208807 -0.26459,-0.264584 -0.38478,-0.192394 -0.38673,0.400257 -0.79375,0.264584 -0.18709,-0.06236 -0.34208,-0.202221 -0.52916,-0.264584 -0.0837,-0.02789 -0.17639,0 -0.26459,0 -0.44097,0 -0.88194,0 -1.32291,0 -0.17639,0 -0.35805,0.04278 -0.52917,0 -0.19132,-0.04783 -0.34208,-0.202221 -0.52917,-0.264583 -0.21296,-0.07099 -0.88926,0.08454 -1.05833,0 -0.11156,-0.05578 -0.15303,-0.208806 -0.26458,-0.264583 -0.0805,-0.04026 -0.6746,0 -0.79375,0 -0.52917,0 -1.05834,0 -1.5875,0 -1.23473,0 -2.46945,0 -3.70417,0 -0.52917,0 -1.05833,0 -1.5875,0 -0.26458,0 -0.54275,0.08367 -0.79375,0 -0.11833,-0.03944 -0.15303,-0.208807 -0.26458,-0.264584 -0.0696,-0.03479 -0.91998,0 -1.05834,0 -0.52916,0 -1.05833,0 -1.5875,0 -0.11916,0 -0.71323,0.04026 -0.79375,0 -0.11156,-0.05578 -0.14626,-0.225141 -0.26458,-0.264583 -0.25101,-0.08367 -0.52917,0 -0.79375,0 -0.52917,0 -1.05833,0 -1.5875,0 -0.79375,0 -1.5875,0 -2.38125,0 -0.10459,0 -1.20992,-0.0565 -1.32292,0 -0.11156,0.05578 -0.15302,0.208804 -0.26458,0.264583 -0.0593,0.02965 -0.99546,0 -1.05833,0 -0.70556,0 -1.41111,0 -2.11667,0 -0.213,0 -0.892269,-0.05536 -1.058335,0 -0.187089,0.06236 -0.342077,0.202219 -0.529166,0.264584 -0.144756,0.04825 -1.559219,0.01413 -1.5875,0 -0.111559,-0.05578 -0.139859,-0.264584 -0.264584,-0.264584 -0.124724,0 -0.139858,0.264584 -0.264583,0.264584 -0.124724,0 -0.153024,-0.208807 -0.264583,-0.264584 -0.07888,-0.03944 -0.17639,0 -0.264584,0 -0.176389,0 -0.352776,0 -0.529166,0 -0.440973,0 -0.881944,0 -1.322917,0 -0.17639,0 -0.352777,0 -0.529167,0 -0.08819,0 -0.1857,0.03944 -0.264583,0 -0.111559,-0.05578 -0.153024,-0.208806 -0.264583,-0.264583 -0.173255,-0.08663 -1.088118,0.07827 -1.322917,0 -0.187089,-0.06236 -0.342077,-0.202221 -0.529166,-0.264583 -0.166066,-0.05536 -0.845334,0 -1.058334,0 -0.97014,0 -1.940277,0 -2.910416,0 -0.617361,0 -1.234724,0 -1.852084,0 -0.08819,0 -0.17639,0 -0.264583,0 -0.08819,0 -0.185701,0.03944 -0.264583,0 -0.111559,-0.05578 -0.153025,-0.208807 -0.264584,-0.264584 -0.08052,-0.04026 -0.674592,0 -0.79375,0 -0.705556,0 -1.41111,0 -2.116666,0 -4.7625,0 -9.525,0 -14.2875,0 -1.41111,0 -2.822223,0 -4.233333,0 -0.440974,0 -0.881944,0 -1.322917,0 -0.08819,0 -0.17639,0 -0.264583,0 -0.08819,0 -0.185701,0.03944 -0.264584,0 -0.111559,-0.05578 -0.146259,-0.225141 -0.264583,-0.264583 -0.14632,-0.04877 -1.321051,0 -1.5875,0 -1.234723,0 -2.469444,0 -3.704167,0 -0.620495,0 0.124725,0.06236 -0.529166,-0.264583 -0.07888,-0.03944 -0.17639,0 -0.264584,0 -0.176389,0 -0.361828,-0.05578 -0.529166,0 -0.118325,0.03944 -0.153025,0.208804 -0.264584,0.264583 -0.112998,0.0565 -1.218324,0 -1.322916,0 -0.08819,0 -0.185701,0.03944 -0.264584,0 -0.111559,-0.05578 -0.153024,-0.208806 -0.264583,-0.264583 -0.07888,-0.03944 -0.17639,0 -0.264583,0 -0.08819,0 -0.17639,0 -0.264584,0 -0.529166,0 -1.058333,0 -1.5875,0 -0.119157,0 -0.713229,0.04026 -0.79375,0 -0.111559,-0.05578 -0.153024,-0.208807 -0.264583,-0.264584 -0.08052,-0.04026 -0.674592,0 -0.79375,0 -0.529167,0 -1.058333,0 -1.5875,0 -0.264583,0 -0.542745,0.08367 -0.79375,0 -0.118324,-0.03944 -0.139859,-0.264583 -0.264583,-0.264583 -0.124725,0 -0.153025,0.208804 -0.264584,0.264583 -0.07888,0.03944 -0.1857,-0.03944 -0.264583,0 -0.111559,0.05578 -0.153024,0.208804 -0.264583,0.264584 -0.07888,0.03944 -0.202221,-0.06236 -0.264584,0 -0.06236,0.06236 0.03944,0.185698 0,0.264583 -0.05578,0.111556 -0.176389,0.176387 -0.264583,0.264583 -0.08819,0.08819 -0.153024,0.208804 -0.264583,0.264584 -0.07888,0.03944 -0.202221,-0.06236 -0.264584,0 -0.06236,0.06236 0.03944,0.185698 0,0.264583 -0.111558,0.223115 -0.417607,0.306049 -0.529166,0.529167 -0.03944,0.07888 0.06236,0.202218 0,0.264583 -0.06236,0.06236 -0.202221,-0.06236 -0.264584,0 -0.06236,0.06236 0.06236,0.202219 0,0.264583 -0.06236,0.06236 -0.1857,-0.03944 -0.264583,0 -1.101132,0.550567 0.28285,-0.01826 -0.264583,0.529167 -0.06236,0.06236 -0.185701,-0.03944 -0.264584,0 -0.07025,0.03512 -0.758623,0.723498 -0.79375,0.79375 -0.03944,0.07888 0.03944,0.185698 0,0.264583 -0.05578,0.111557 -0.176389,0.176388 -0.264583,0.264584 -0.08819,0.08819 -0.17639,0.352777 -0.264583,0.264583 -0.08819,-0.0882 0.365453,-0.337944 0.264583,-0.264583 -1.06989,0.7781 -2.116666,1.5875 -3.175,2.38125"
       id="path8457"
       inkscape:connector-curvature="0" />
    <path
       style="fill:#6c0000;fill-opacity:1;stroke:none;stroke-width:0.26458332px;stroke-linecap:butt;stroke-linejoin:miter;stroke-opacity:1"
       d="m 38.629166,45.381251 c 0.282181,0.556096 0.489678,1.156898 0.846542,1.668288 0.21639,0.310086 0.18709,-0.301734 0.18709,-0.374179 0,-0.438756 -0.0441,0.08819 0.187087,-0.374177 0.02789,-0.05578 -0.02789,-0.13131 0,-0.187089 0.03944,-0.07888 0.147648,-0.108204 0.187089,-0.18709 0.09985,-0.199705 -0.09985,-0.174471 0,-0.374176 0.03944,-0.07888 0.147648,-0.108204 0.18709,-0.18709 0.07484,-0.149669 -0.07484,-0.411594 0,-0.561266 0.03944,-0.07888 0.147645,-0.108204 0.187087,-0.187087 0.02789,-0.05578 -0.0441,-0.142991 0,-0.187089 0.0441,-0.0441 0.142991,0.0441 0.187089,0 0.08819,-0.08819 -0.05578,-0.26262 0,-0.374176 0.01791,-0.03581 0.712542,-0.730449 0.748356,-0.748356 0.05578,-0.02789 0.142991,0.0441 0.187089,0 0.0441,-0.0441 -0.0441,-0.142991 0,-0.187089 0.0441,-0.0441 0.131308,0.02789 0.187087,0 0.07888,-0.03944 0.124727,-0.124725 0.18709,-0.187087 0.620495,-0.620496 -0.17639,0.08819 0.374176,-0.18709 0.157768,-0.07888 0.216411,-0.295293 0.374179,-0.374176 0.111556,-0.05578 0.285983,0.08819 0.374176,0 0.0441,-0.0441 -0.0441,-0.142992 0,-0.18709 0.08819,-0.08819 0.262621,0.05578 0.374177,0 0.07888,-0.03944 0.108206,-0.147648 0.187089,-0.187089 0.149673,-0.07484 0.411594,0.07484 0.561266,0 0.07888,-0.03944 0.103421,-0.1592 0.18709,-0.187087 0.233952,-0.07799 1.075666,0.07798 1.309618,0 0.08367,-0.02789 0.108207,-0.147648 0.18709,-0.18709 0.05578,-0.02789 0.124727,0 0.18709,0 0.06236,0 0.124724,0 0.187086,0 0.156668,0 0.793171,-0.03557 0.935445,0 0.135284,0.03382 0.241885,0.142992 0.374177,0.18709 0.05916,0.01971 0.124727,0 0.187089,0 0.124725,0 0.249452,0 0.374177,0 0.374179,0 0.748355,0 1.122531,0 0.06236,0 0.124728,0 0.18709,0 0.06236,0 0.13131,-0.02789 0.18709,0 0.07888,0.03944 0.108203,0.147645 0.187086,0.187087 0.109612,0.05481 0.797579,-0.03446 0.935445,0 0.135284,0.03382 0.238893,0.153268 0.374177,0.187089 0.09115,0.02278 0.649427,-0.04946 0.748355,0 0.07888,0.03944 0.108204,0.147646 0.18709,0.18709 0.149669,0.07484 0.411593,-0.07484 0.561266,0 0.07888,0.03944 0.108204,0.147645 0.187086,0.187087 0.118028,0.05901 0.817415,-0.05901 0.935445,0 0.07888,0.03944 0.108204,0.147648 0.187087,0.187089 0.149672,0.07484 0.411597,-0.07484 0.561266,0 0.07889,0.03944 0.103421,0.1592 0.18709,0.18709 1.25503,0.41834 -0.129001,-0.23009 0.561266,0 0.132291,0.04409 0.241884,0.142991 0.374176,0.187087 0.165666,0.05522 0.749985,-0.04636 0.935445,0 0.135284,0.03382 0.241885,0.142991 0.374176,0.187089 0.163526,0.05451 1.009846,-0.05634 1.122532,0 0.07888,0.03944 0.108207,0.147648 0.18709,0.18709 0.0799,0.03995 0.861483,0 0.935442,0 0.249452,0 0.498904,0 0.748355,0 0.06236,0 0.124725,0 0.18709,0 0.06236,0 0.187087,-0.06236 0.187087,0 0,0.06236 -0.249452,0 -0.187087,0 0.124724,0 0.249452,0 0.374176,0 0.06236,0 0.142992,0.0441 0.18709,0 0.04409,-0.0441 -0.05578,-0.1592 0,-0.18709 0.07952,-0.03976 0.778663,0 0.935442,0 0.374177,0 0.748356,0 1.122532,0 0.08426,0 0.50433,-0.02847 0.561266,0 0.07888,0.03944 0.108206,0.147648 0.187089,0.18709 0.05578,0.02789 0.124725,0 0.18709,0 0.187087,0 0.383778,0.05916 0.561266,0 0.08367,-0.02789 0.108204,-0.147648 0.187087,-0.18709 0.04919,-0.02461 0.650523,0 0.748355,0 0.623628,0 1.247259,0 1.870887,0 0.104423,0 0.8498,-0.02855 0.935443,0 0.08367,0.02789 0.10342,0.1592 0.187089,0.18709 0.118324,0.03944 0.249452,0 0.374177,0 0.311814,0 0.623628,0 0.935445,0 0.68599,0 1.371983,0 2.057974,0 0.0787,0 1.066876,0.02783 1.122531,0 0.07888,-0.03944 0.103421,-0.1592 0.18709,-0.18709 0.08564,-0.02855 0.831019,0 0.935442,0 0.150614,0 0.630928,-0.03914 0.748356,0 0.132291,0.0441 0.241884,0.142992 0.374176,0.18709 0.105556,0.03518 0.43833,0 0.561266,0 0.374179,0 0.748355,0 1.122532,0 0.130127,0 0.867786,-0.03383 0.935445,0 0.07888,0.03944 0.101526,0.165698 0.187087,0.187086 0.170555,0.04264 1.235194,0 1.49671,0 0.06236,0 0.124725,0 0.18709,0 0.06236,0 0.131307,-0.02789 0.187087,0 0.07888,0.03944 0.108207,0.147649 0.187089,0.18709 0.05578,0.02789 0.124725,0 0.18709,0 0.124724,0 0.249449,0 0.374176,0 0.436542,0 0.87308,0 1.309622,0 0.06236,0 0.124724,0 0.187087,0 0.06236,0 0.13131,-0.02789 0.187089,0 0.07888,0.03944 0.108204,0.147648 0.18709,0.18709 0.05578,0.02789 0.124724,0 0.187086,0 0.06236,0 0.124728,0 0.18709,0 0.311814,0 0.623628,0 0.935442,0 0.06236,0 0.13131,-0.02789 0.18709,0 0.07888,0.03944 0.108206,0.147645 0.187089,0.187086 0.05578,0.02789 0.124725,0 0.187087,0 0.06236,0 0.124727,0 0.18709,0 0.498903,0 0.997807,0 1.496711,0 0.122936,0 0.45571,-0.03518 0.561265,0 0.132292,0.0441 0.238893,0.153268 0.374177,0.18709 0.152141,0.03804 0.926679,0 1.122532,0 0.436541,0 0.87308,0 1.309621,0 0.187087,0 0.383778,-0.05916 0.561266,0 0.08367,0.02789 0.108204,0.147648 0.187089,0.187089 0.05578,0.02789 0.124725,0 0.187087,0 0.124728,0 0.249452,0 0.374179,0 0.623629,0 1.247257,0 1.870885,0 0.0787,0 1.066879,-0.02783 1.122532,0 0.07888,0.03944 0.10342,0.159198 0.187089,0.187087 0.118325,0.03944 0.249452,0 0.374177,0 0.124727,0 0.249451,0 0.374179,0 0.436538,0 0.87308,0 1.309621,0 0.498901,0 0.997805,0 1.496708,0 0.18709,0 0.383778,-0.05916 0.561266,0 0.08367,0.02789 0.108204,0.147648 0.18709,0.18709 0.05578,0.02789 0.124724,0 0.187087,0 0.06236,0 0.124727,0 0.187089,0 0.311814,0 0.623628,0 0.935442,0 0.18709,0 0.383778,-0.05916 0.561266,0 0.08367,0.02789 0.108207,0.147648 0.18709,0.187089 0.05578,0.02789 0.124732,0 0.187092,0 0.0624,0 0.12472,0 0.18708,0 0.43655,0 0.87309,0 1.30963,0 0.0978,0 0.69916,-0.02461 0.74835,0 0.46237,0.231185 -0.0646,0.187087 0.37418,0.187087 2.36979,0 4.73958,0 7.10937,0 0.81072,0 1.62143,0 2.43215,0 0.0999,0 0.8819,-0.02677 0.93544,0 0.0789,0.03944 0.10821,0.147648 0.18709,0.18709 0.0558,0.02789 0.12473,0 0.18709,0 0.12473,0 0.24945,0 0.37418,0 0.31181,0 0.62363,0 0.93544,0 0.12473,0 0.24945,0 0.37418,0 0.0624,0 0.13131,-0.02789 0.18709,0 0.0789,0.03944 0.1082,0.147648 0.18709,0.187089 0.0419,0.02096 0.70389,0 0.74835,0 0.37418,0 0.74836,0 1.12253,0 0.99781,0 1.99561,0 2.99342,0 0.31182,0 0.62363,0 0.93544,0 0.0624,0 0.12473,0 0.18709,0 0.0624,0 0.13131,-0.02789 0.18709,0 0.0789,0.03944 0.10342,0.1592 0.18709,0.187087 0.0964,0.03213 1.11172,0 1.30962,0 0.0624,0 0.12473,0 0.18709,0 0.0624,0 0.13131,-0.02789 0.18709,0 0.0789,0.03944 0.1082,0.147648 0.18709,0.18709 0.0558,0.02789 0.12472,0 0.18709,0 0.0624,0 0.12472,0 0.18708,0 0.31182,0 0.62363,0 0.93545,0 0.0624,0 0.12472,0 0.18709,0 0.0624,0 0.13131,-0.02789 0.18709,0 0.0789,0.03944 0.1082,0.147648 0.18708,0.187089 0.0558,0.02789 0.12473,0 0.18709,0 0.18127,0 1.01098,-0.03718 1.12253,0 0.1323,0.0441 0.24189,0.142992 0.37418,0.187087 0.11041,0.0368 0.83091,0 0.93544,0 0.0624,0 0.143,-0.04409 0.18709,0 0.0441,0.0441 -0.0558,0.1592 0,0.18709 0.11483,0.05741 0.81947,-0.05799 0.93545,0 0.0789,0.03944 0.1082,0.147648 0.18709,0.187089 0.11156,0.05578 0.26262,-0.05578 0.37417,0 0.0789,0.03944 0.10821,0.147646 0.18709,0.18709 0.11156,0.05578 0.26262,-0.05578 0.37418,0 0.15777,0.07888 0.21641,0.295293 0.37418,0.374176 0.0558,0.02789 0.14299,-0.0441 0.18708,0 0.0441,0.0441 -0.0441,0.142991 0,0.18709 0.0441,0.04409 0.143,-0.0441 0.18709,0 0.0441,0.04409 -0.0441,0.142991 0,0.187086 0.0441,0.0441 0.143,-0.04409 0.18709,0 0.0441,0.0441 -0.0279,0.13131 0,0.18709 0.0789,0.157766 0.2953,0.216411 0.37418,0.374176 0.0279,0.05578 -0.0441,0.142992 0,0.18709 0.0441,0.0441 0.14299,-0.0441 0.18709,0 0.0441,0.0441 -0.0279,0.13131 0,0.187089 0.0394,0.07888 0.14764,0.108204 0.18709,0.187087 0.0748,0.149672 -0.0748,0.411597 0,0.561266 0.0394,0.07889 0.14764,0.108207 0.18709,0.18709 0.0371,0.07418 -0.0382,0.523017 0,0.561266 0.0441,0.0441 0.14299,-0.0441 0.18709,0 0.0382,0.03825 -0.0371,0.487087 0,0.561265 0.0394,0.07888 0.14764,0.108207 0.18708,0.18709 0.0748,0.149669 -0.0748,0.411594 0,0.561266 0.0394,0.07888 0.14765,0.108204 0.18709,0.187087 0.0588,0.117591 -0.0588,0.630766 0,0.748355 0.0394,0.07888 0.14765,0.108207 0.18709,0.18709 0.0748,0.149669 -0.0748,0.411593 0,0.561266 0.0394,0.07888 0.14765,0.108204 0.18709,0.187089 0.059,0.118028 -0.059,0.817414 0,0.935442 0.0394,0.07888 0.14765,0.108204 0.18709,0.18709 0.0278,0.05565 0,1.043829 0,1.122532 0,0.06236 -0.0279,0.13131 0,0.187087 0.0394,0.07888 0.14765,0.108206 0.18709,0.187089 0.0279,0.05578 0,0.124727 0,0.18709 0,0.06236 0,0.124724 0,0.187087 0,0.602231 0.0441,-0.319379 -0.18709,0.374179 -0.0119,0.03555 -0.0248,1.25998 0,1.309621 0.0394,0.07888 0.14765,0.108204 0.18709,0.187087 0.0279,0.05578 0,0.124727 0,0.187089 0,0.06236 0,0.124725 0,0.18709 0,0.311814 0,0.623628 0,0.935442 0,0.18709 -0.0592,0.383778 0,0.561266 0.0279,0.08367 0.14764,0.108204 0.18709,0.18709 0.0568,0.113604 -0.0568,1.008927 0,1.122531 0.0394,0.07888 0.14764,0.108204 0.18708,0.187087 0.0279,0.05578 0,0.124727 0,0.18709 0,0.132609 -0.0242,1.07416 0,1.122532 0.0394,0.07888 0.14765,0.108206 0.18709,0.187089 0.0568,0.113604 -0.0568,1.008928 0,1.122532 0.0394,0.07888 0.14765,0.108204 0.18709,0.187089 0.0537,0.1074 -0.0398,0.77619 0,0.935443 0.0338,0.135284 0.14299,0.241884 0.18709,0.374176 0.0553,0.166029 -0.0613,0.812935 0,0.935445 0.0394,0.07888 0.14765,0.108204 0.18709,0.187087 0.0568,0.113607 -0.0568,1.008928 0,1.122532 0.0394,0.07888 0.14764,0.108206 0.18709,0.187089 0.0279,0.05578 0,0.124728 0,0.18709 0,0.06236 0,0.124724 0,0.187087 0,0.311816 0,0.623631 0,0.935445 0,0.06236 -0.0279,0.13131 0,0.187089 0.0394,0.07888 0.14764,0.108204 0.18709,0.187087 0.0588,0.117589 -0.0588,0.630767 0,0.748355 0.0394,0.07888 0.14764,0.108204 0.18708,0.18709 0.0279,0.05578 0,0.124725 0,0.187087 0,0.223687 -0.0407,1.000426 0,1.122532 0.0441,0.132291 0.143,0.241887 0.18709,0.374179 0.0372,0.111553 0,0.941268 0,1.122532 0,0.06236 -0.0279,0.13131 0,0.187086 0.23119,0.462373 0.18709,-0.06458 0.18709,0.374179 0,0.09783 -0.0246,0.699162 0,0.748356 0.0394,0.07888 0.14765,0.108204 0.18709,0.187087 0.0588,0.117588 -0.0588,0.630766 0,0.748355 0.0394,0.07888 0.14765,0.108204 0.18709,0.18709 0.0748,0.149669 -0.0748,0.411593 0,0.561266 0.0394,0.07888 0.1592,0.10342 0.18709,0.187086 0.0663,0.198803 -0.0663,0.549553 0,0.748356 0.0441,0.132292 0.14299,0.241885 0.18709,0.374176 0.0394,0.118327 -0.0558,0.26262 0,0.374179 0.0394,0.07888 0.14764,0.108204 0.18709,0.187087 0.0588,0.117592 -0.0588,0.630767 0,0.748356 0.0394,0.07888 0.15919,0.10342 0.18708,0.187089 0.0345,0.103463 0,0.934125 0,1.122532 0,0.06236 -0.0279,0.13131 0,0.187089 0.0394,0.07888 0.1592,0.103418 0.18709,0.187087 0.0592,0.177488 0,0.374179 0,0.561266 0,0.436542 0,0.87308 0,1.309622 0,0.09783 0.0246,0.699161 0,0.748355 -0.0789,0.157766 -0.29529,0.216411 -0.37417,0.374176 -0.12904,0.258062 0.22657,0.167347 -0.18709,0.374177 -0.0558,0.02789 -0.13131,-0.02789 -0.18709,0 -0.0789,0.03944 -0.12473,0.124727 -0.18709,0.187089 -0.0624,0.06236 -0.14765,0.108207 -0.18709,0.18709 -0.0279,0.05578 0.0441,0.142991 0,0.187087 -0.0441,0.0441 -0.13131,-0.02789 -0.18709,0 -0.15776,0.07888 -0.22741,0.276336 -0.37418,0.374179 -0.11602,0.07735 -0.25814,0.109736 -0.37417,0.187089 -0.0734,0.04892 -0.10821,0.147646 -0.18709,0.187087 -0.0558,0.02789 -0.13131,-0.02789 -0.18709,0 -0.0789,0.03944 -0.11371,0.138168 -0.18709,0.18709 -0.11603,0.07735 -0.25815,0.109736 -0.37418,0.187089 -0.0734,0.04892 -0.1052,0.154334 -0.18708,0.187087 -0.23874,0.0955 -0.50443,0.105778 -0.74836,0.18709 -0.26458,0.08819 -0.47779,0.306535 -0.74835,0.374176 -0.12101,0.03025 -0.25838,-0.04632 -0.37418,0 -0.20877,0.08351 -0.36846,0.258493 -0.56127,0.374179 -0.11957,0.07174 -0.2447,0.135297 -0.37418,0.187087 -0.56071,0.224287 -0.68871,0.196776 -1.30961,0.374179 -0.18963,0.05418 -0.36789,0.148413 -0.56127,0.187087 -0.1223,0.02445 -0.24945,0 -0.37418,0 -0.24945,0.06236 -0.50112,0.116451 -0.74835,0.187089 -0.75777,0.216506 -1.4873,0.53185 -2.24507,0.748356 -0.68405,0.195442 -1.37392,0.365821 -2.05797,0.561266 -0.18962,0.05418 -0.37165,0.13291 -0.56127,0.187086 -0.49447,0.14128 -1.00224,0.232903 -1.49671,0.37418 -0.18962,0.05418 -0.37164,0.13291 -0.56127,0.187086 -2.51603,0.718871 1.01933,-0.344688 -1.4967,0.374179 -0.53308,0.152308 -0.72476,0.290624 -1.30962,0.374177 -0.18521,0.02646 -0.37606,-0.02646 -0.56127,0 -0.25455,0.03636 -0.4989,0.124727 -0.74835,0.187089 -0.24946,0.06236 -0.49891,0.124725 -0.74836,0.18709 -0.24945,0.06236 -0.4925,0.161502 -0.74835,0.187087 -0.37232,0.03723 -0.75065,-0.04132 -1.12254,0 -0.196,0.02178 -0.37164,0.132911 -0.56126,0.187089 -0.24724,0.07064 -0.49321,0.155197 -0.74836,0.18709 -0.24752,0.03094 -0.50083,-0.03094 -0.74835,0 -0.25515,0.03189 -0.4928,0.158692 -0.74836,0.187087 -0.55783,0.06198 -1.12686,-0.06961 -1.68379,0 -0.25515,0.03189 -0.49891,0.124727 -0.74836,0.187089 -0.31181,0 -0.62553,-0.03444 -0.93544,0 -0.25556,0.0284 -0.4989,0.124725 -0.74836,0.18709 -0.37417,0.06236 -0.74507,0.149341 -1.12253,0.187087 -0.49643,0.04964 -1.00166,-0.06188 -1.49671,0 -0.25514,0.03189 -0.4928,0.158694 -0.74835,0.187089 -0.55784,0.06198 -1.12687,-0.06962 -1.6838,0 -0.25514,0.03189 -0.4928,0.158695 -0.74835,0.18709 -0.30991,0.03443 -0.62363,0 -0.93545,0 -0.24945,0 -0.4989,0 -0.74835,0 -0.249455,0 -0.500832,-0.03094 -0.748358,0 -0.255143,0.03189 -0.493213,0.155194 -0.748356,0.187086 -0.971232,0.121405 -0.525475,-0.121404 -1.496708,0 -0.255143,0.03189 -0.493212,0.155197 -0.748355,0.18709 -0.78762,0.09845 -0.896176,-0.09845 -1.683798,0 -0.195686,0.02447 -0.366038,0.1592 -0.561266,0.18709 -0.49389,0.07055 -1.002821,-0.07056 -1.496708,0 -0.195228,0.02789 -0.367887,0.148412 -0.561266,0.187086 -0.122304,0.02445 -0.249452,0 -0.374179,0 -0.249452,0 -0.498904,0 -0.748353,0 -0.249452,0 -0.502298,-0.04101 -0.748355,0 -0.137552,0.02294 -0.236628,0.164164 -0.374177,0.18709 -0.492117,0.08202 -1.002821,-0.07056 -1.49671,0 -0.195226,0.02789 -0.366038,0.1592 -0.561266,0.187089 -0.246944,0.03528 -0.498904,0 -0.748356,0 -0.374176,0 -0.748353,0 -1.122532,0 -0.187086,0 -0.376721,-0.03076 -0.561266,0 -0.194524,0.03242 -0.367887,0.148413 -0.561265,0.187087 -0.122304,0.02445 -0.249452,0 -0.374177,0 -0.436541,0 -0.87308,0 -1.309621,0 -0.18709,0 -0.377809,-0.03669 -0.561266,0 -0.136739,0.02735 -0.238892,0.153268 -0.374176,0.18709 -0.121002,0.03025 -0.249452,0 -0.374179,0 -0.124725,0 -0.249452,0 -0.374177,0 -0.748355,0 -1.496708,0 -2.245064,0 -0.187089,0 -0.374179,0 -0.561265,0 -0.124728,0 -0.253178,-0.03025 -0.374179,0 -0.135285,0.03382 -0.238893,0.153268 -0.374177,0.187089 -0.121002,0.03025 -0.249452,0 -0.374176,0 -0.374179,0 -0.748356,0 -1.122532,0 -0.124727,0 -0.253177,-0.03025 -0.374179,0 -0.135284,0.03382 -0.238892,0.153268 -0.374176,0.187087 -0.121002,0.03025 -0.249452,0 -0.374177,0 -0.124727,0 -0.249452,0 -0.374179,0 -0.623628,0 -1.247256,0 -1.870887,0 -0.561266,0 -1.122532,0 -1.683798,0 -0.124724,0 -0.249452,0 -0.374176,0 -0.124725,0 -0.253175,0.03025 -0.374177,0 -0.135284,-0.03382 -0.241887,-0.142991 -0.374179,-0.187087 -0.121216,-0.04041 -0.782272,0 -0.935442,0 -0.948081,0 0.223115,0.05578 -0.748355,-0.187089 -0.147167,-0.03679 -0.927974,0 -1.122532,0 -0.124725,0 -0.253175,0.03025 -0.374177,0 -0.135284,-0.03382 -0.238895,-0.153268 -0.374179,-0.18709 -0.242001,-0.0605 -0.503745,0.04892 -0.748352,0 -0.38676,-0.07735 -0.735775,-0.296825 -1.122532,-0.374176 -0.183457,-0.03669 -0.383778,0.05916 -0.561266,0 -0.132292,-0.0441 -0.238895,-0.153268 -0.374179,-0.18709 -0.242004,-0.0605 -0.506352,0.0605 -0.748353,0 -0.135284,-0.03382 -0.241887,-0.142991 -0.374179,-0.187086 -0.177488,-0.05916 -0.379762,0.04538 -0.561266,0 -0.135284,-0.03382 -0.238892,-0.153268 -0.374176,-0.18709 -0.181505,-0.04538 -0.383778,0.05916 -0.561266,0 -0.132292,-0.0441 -0.238895,-0.153268 -0.374179,-0.18709 -0.242004,-0.0605 -0.506349,0.0605 -0.748353,0 -0.135284,-0.03382 -0.241887,-0.142991 -0.374179,-0.187086 -0.177488,-0.05916 -0.379762,0.04538 -0.561266,0 -0.135284,-0.03382 -0.238892,-0.153268 -0.374176,-0.18709 -0.242004,-0.0605 -0.511705,0.07888 -0.748356,0 -0.08367,-0.02789 -0.10342,-0.1592 -0.187087,-0.187089 -0.236651,-0.07888 -0.511704,0.07888 -0.748355,0 -0.08367,-0.02789 -0.10342,-0.159198 -0.18709,-0.187087 -0.17332,-0.05777 -0.756171,0.05976 -0.935442,0 -0.132292,-0.0441 -0.238895,-0.153268 -0.374179,-0.18709 -0.293471,-0.07337 -0.641969,0.07337 -0.935442,0 -0.135284,-0.03382 -0.241885,-0.142991 -0.374177,-0.187089 -0.179271,-0.05976 -0.762124,0.05777 -0.935445,0 -0.08367,-0.02789 -0.10342,-0.159197 -0.187087,-0.187087 -0.08564,-0.02855 -0.831019,0 -0.935444,0 -0.06236,0 -0.127927,0.01971 -0.187087,0 -0.132292,-0.0441 -0.241888,-0.142992 -0.374179,-0.18709 -0.168379,-0.05613 -0.392885,0.05613 -0.561266,0 -0.08367,-0.02789 -0.103421,-0.1592 -0.18709,-0.187089 -0.280633,-0.09354 -0.654809,0.09355 -0.935442,0 -0.08367,-0.02789 -0.10342,-0.1592 -0.18709,-0.187087 -0.118324,-0.03944 -0.255852,0.03944 -0.374176,0 -0.08367,-0.02789 -0.10342,-0.1592 -0.18709,-0.18709 -0.118324,-0.03944 -0.249451,0 -0.374176,0 -0.06236,0 -0.13131,0.02789 -0.187089,0 -0.07888,-0.03944 -0.124725,-0.124727 -0.187087,-0.187089 -0.124728,0 -0.255852,0.03944 -0.374179,0 -0.08367,-0.02789 -0.103421,-0.1592 -0.187087,-0.187087 -0.118327,-0.03944 -0.255852,0.03944 -0.374179,0 -0.08367,-0.02789 -0.103421,-0.1592 -0.187087,-0.18709 -0.118327,-0.03944 -0.255852,0.03944 -0.374179,0 -0.08367,-0.02789 -0.108204,-0.147648 -0.187087,-0.187089 -0.05578,-0.02789 -0.127926,0.01971 -0.18709,0 -0.132291,-0.0441 -0.241887,-0.142991 -0.374179,-0.18709 -0.118324,-0.03944 -0.262617,0.05578 -0.374176,0 -0.07888,-0.03944 -0.108204,-0.147645 -0.18709,-0.187086 -0.05578,-0.02789 -0.131307,0.02789 -0.187086,0 -0.07888,-0.03944 -0.108207,-0.147649 -0.18709,-0.18709 -0.111559,-0.05578 -0.26262,0.05578 -0.374176,0 -0.07888,-0.03944 -0.108207,-0.147645 -0.18709,-0.18709 -0.05578,-0.02789 -0.13131,0.02789 -0.187089,0 -0.07888,-0.03944 -0.108204,-0.147645 -0.187087,-0.187086 -0.111559,-0.05578 -0.26262,0.05578 -0.374179,0 -0.07888,-0.03944 -0.108204,-0.147648 -0.187087,-0.18709 -0.05578,-0.02789 -0.13131,0.02789 -0.18709,0 -0.07888,-0.03944 -0.108204,-0.147645 -0.187089,-0.187089 -0.111556,-0.05578 -0.262618,0.05578 -0.374177,0 -0.07888,-0.03944 -0.124724,-0.124725 -0.187089,-0.187087 0,-0.06236 0.05578,-0.1592 0,-0.18709 -0.111556,-0.05578 -0.255852,0.03944 -0.374176,0 -0.167339,-0.05578 -0.216411,-0.295293 -0.374177,-0.374176 -0.05578,-0.02789 -0.142991,0.04409 -0.187089,0 -0.0441,-0.0441 0.0441,-0.142992 0,-0.18709 -0.0441,-0.0441 -0.13131,0.02789 -0.18709,0 -0.07888,-0.03944 -0.108204,-0.147648 -0.187087,-0.187089 -0.05578,-0.02789 -0.142991,0.0441 -0.187089,0 -0.387094,-0.387094 0.591529,0.01513 -0.18709,-0.374177 -0.05578,-0.02789 -0.13131,0.02789 -0.187087,0 -0.07888,-0.03944 -0.108206,-0.147648 -0.187089,-0.187089 -0.05578,-0.02789 -0.13131,0.02789 -0.18709,0 -0.07888,-0.03944 -0.113707,-0.138166 -0.187089,-0.187087 -0.116025,-0.07735 -0.258149,-0.109739 -0.374177,-0.18709 -0.07338,-0.04892 -0.108204,-0.147648 -0.187089,-0.187089 -0.05578,-0.02789 -0.131308,0.02789 -0.187087,0 -0.07888,-0.03944 -0.108207,-0.147645 -0.18709,-0.187087 -0.05578,-0.02789 -0.13131,0.02789 -0.187089,0 -0.159684,-0.07984 -0.21449,-0.294336 -0.374176,-0.374179 -0.05578,-0.02789 -0.124725,0 -0.18709,0 -0.06236,-0.06236 -0.108204,-0.147645 -0.187087,-0.187087 -0.05578,-0.02789 -0.142991,0.0441 -0.187089,0 -0.0441,-0.0441 0.02789,-0.13131 0,-0.187089 -0.389308,-0.778619 0.01291,0.200003 -0.374177,-0.18709 -0.0441,-0.0441 0.0441,-0.142991 0,-0.187087 -0.0441,-0.0441 -0.13131,0.02789 -0.187089,0 -0.07888,-0.03944 -0.108204,-0.147648 -0.18709,-0.187089 -0.05578,-0.02789 -0.142991,0.0441 -0.187087,0 -0.0441,-0.0441 0.0441,-0.142992 0,-0.18709 -0.0882,-0.08819 -0.285982,0.0882 -0.374179,0 -0.04409,-0.04409 0.02789,-0.13131 0,-0.187089 -0.389308,-0.778616 0.01291,0.200006 -0.374176,-0.187087 -0.0441,-0.0441 0.0441,-0.142992 0,-0.18709 -0.0441,-0.0441 -0.13131,0.02789 -0.18709,0 -0.07888,-0.03944 -0.108204,-0.147645 -0.187086,-0.187089 -0.05578,-0.02789 -0.142992,0.0441 -0.18709,0 -0.0441,-0.0441 0.0441,-0.142992 0,-0.187087 -0.0441,-0.0441 -0.13131,0.02789 -0.187089,0 -0.07888,-0.03944 -0.108204,-0.147648 -0.187087,-0.18709 -0.05578,-0.02789 -0.13131,0.02789 -0.18709,0 -0.157768,-0.07888 -0.216411,-0.295293 -0.374179,-0.374176 -0.05578,-0.02789 -0.142991,0.04409 -0.187087,0 -0.0441,-0.0441 -0.06236,-0.18709 0,-0.18709 0.08819,0 0.275283,0.18709 0.187087,0.18709 -0.139446,0 -0.275571,-0.08849 -0.374176,-0.18709 -0.08819,-0.08819 0.05578,-0.26262 0,-0.374176 -0.03944,-0.07888 -0.147646,-0.108207 -0.18709,-0.187089 -0.02789,-0.05578 0.02789,-0.13131 0,-0.18709 -0.620493,-0.620493 0.0882,0.17639 -0.187087,-0.374176 -0.03944,-0.07888 -0.147648,-0.108204 -0.187089,-0.18709 -0.05578,-0.111556 0.05578,-0.262617 0,-0.374176 -0.03944,-0.07888 -0.147646,-0.108204 -0.18709,-0.18709 -0.05578,-0.111556 0.05578,-0.262617 0,-0.374176 -0.03944,-0.07888 -0.147645,-0.108207 -0.187087,-0.18709 -0.05578,-0.111556 0.03944,-0.255852 0,-0.374176 -0.0441,-0.132292 -0.142991,-0.241885 -0.187089,-0.374176 -0.03719,-0.111557 0,-0.941269 0,-1.122535 0,-0.0787 -0.02783,-1.066877 0,-1.122532 0.03944,-0.07888 0.147648,-0.108204 0.187089,-0.187087 0.05901,-0.118028 -0.05901,-0.817414 0,-0.935445 0.03944,-0.07888 0.147646,-0.108204 0.187087,-0.187086 0.03709,-0.07418 -0.03825,-0.523021 0,-0.561266 0.0441,-0.0441 0.142992,0.04409 0.18709,0 0.04,-0.04 -0.03438,-0.645208 0,-0.748356 0.0441,-0.132291 0.142991,-0.241884 0.187089,-0.374176 0.03944,-0.118327 -0.05578,-0.26262 0,-0.374179 0.03944,-0.07888 0.147646,-0.108204 0.187087,-0.187087 0.07484,-0.149672 -0.07484,-0.411596 0,-0.561269 0.03944,-0.07888 0.147648,-0.108204 0.18709,-0.187086 0.07483,-0.149673 -0.07484,-0.411597 0,-0.561266 0.03944,-0.07888 0.147648,-0.108207 0.187089,-0.18709 0.07483,-0.149669 -0.07484,-0.411594 0,-0.561266 0.03944,-0.07888 0.147646,-0.108204 0.187087,-0.187089 0.05578,-0.111557 -0.05578,-0.262618 0,-0.374177 0.03944,-0.07888 0.147648,-0.108204 0.18709,-0.187089 0.07483,-0.14967 -0.07484,-0.411594 0,-0.561266 0.03944,-0.07888 0.159199,-0.10342 0.187089,-0.187087 0.03944,-0.118327 0,-0.249452 0,-0.374179 0,-0.06236 -0.02789,-0.13131 0,-0.187087 0.03944,-0.07888 0.147646,-0.108207 0.18709,-0.187089 0.05148,-0.102955 -0.04876,-0.976268 0,-1.122532 0.02789,-0.08367 0.147645,-0.108207 0.187087,-0.18709 0.02789,-0.05578 0,-0.124724 0,-0.187089 0,-0.06236 0,-0.124725 0,-0.187087 0,-0.08426 -0.02847,-0.50433 0,-0.561266 0.03944,-0.07888 0.147648,-0.108207 0.187089,-0.18709 0.05901,-0.118028 -0.05902,-0.817414 0,-0.935442 0.03944,-0.07888 0.147645,-0.108207 0.18709,-0.187089 0.07483,-0.149673 -0.07484,-0.411594 0,-0.561266 0.03944,-0.07888 0.147645,-0.108204 0.187086,-0.18709 0.02789,-0.05578 0,-0.124724 0,-0.187087 0,-0.06236 0,-0.124727 0,-0.187089 0,-0.311814 0,-0.623628 0,-0.935443 0,-0.06236 -0.02789,-0.13131 0,-0.187089 0.03944,-0.07888 0.147648,-0.108207 0.18709,-0.18709 0.02789,-0.05578 0,-0.124724 0,-0.187086 0,-0.311817 0,-0.623631 0,-0.935445 0,-0.06236 0,-0.124725 0,-0.18709 0,-0.06236 -0.02789,-0.131307 0,-0.187087 0.03944,-0.07888 0.147645,-0.108206 0.187089,-0.187089 0.06163,-0.123259 -0.05767,-0.949518 0,-1.122532 0.231185,-0.693558 0.187087,0.228052 0.187087,-0.374177 0,-0.935444 0,-1.870887 0,-2.806329 0,-0.09995 -0.02677,-0.881899 0,-0.935445 0.03944,-0.07888 0.147648,-0.108204 0.18709,-0.18709 0.0588,-0.117588 -0.0588,-0.630764 0,-0.748352 0.03944,-0.07888 0.147648,-0.108207 0.187089,-0.18709 0.0568,-0.113604 -0.0568,-1.008928 0,-1.122532 0.03944,-0.07888 0.147646,-0.108204 0.187087,-0.187089 0.07484,-0.14967 -0.07484,-0.411594 0,-0.561266 0.03944,-0.07888 0.1592,-0.10342 0.18709,-0.187087 0.05767,-0.173014 -0.06163,-0.999273 0,-1.122532 0.03944,-0.07888 0.147648,-0.108206 0.187089,-0.187089 0.03383,-0.06766 0,-0.805315 0,-0.935445 0,-0.06236 -0.0441,-0.142992 0,-0.187087 0.0441,-0.0441 0.159197,0.05578 0.187087,0 0.05742,-0.114827 -0.05799,-0.819468 0,-0.935445 0.03944,-0.07888 0.147648,-0.108204 0.18709,-0.187087 0.02789,-0.05578 0,-0.124727 0,-0.187089 0,-0.06236 0,-0.124725 0,-0.18709 0,-0.04537 -0.006,-0.555249 0,-0.561266 0.0441,-0.0441 0.142991,0.0441 0.187089,0 0.05119,-0.05119 -0.05075,-0.646861 0,-0.748353 0.03944,-0.07888 0.147646,-0.108206 0.187087,-0.187089 0.07484,-0.149672 -0.07484,-0.411597 0,-0.561266 0.03944,-0.07888 0.147648,-0.108207 0.18709,-0.18709 0.05578,-0.111556 -0.08819,-0.285982 0,-0.374176 0.0441,-0.0441 0.142991,0.0441 0.187089,0 0.08819,-0.08819 -0.05578,-0.26262 0,-0.374176 0.03944,-0.07889 0.147646,-0.108207 0.187087,-0.18709 0.05578,-0.111559 -0.08819,-0.285983 0,-0.374179 0.0441,-0.04409 0.142991,0.0441 0.187089,0 0.0441,-0.04409 -0.02789,-0.131307 0,-0.187087 0.03944,-0.07888 0.147649,-0.108206 0.18709,-0.187089 0.05578,-0.111559 -0.05578,-0.26262 0,-0.374177 0.03944,-0.07888 0.147645,-0.108206 0.187087,-0.187089 0.02789,-0.05578 -0.02789,-0.13131 0,-0.18709 0.03944,-0.07888 0.147648,-0.108204 0.187089,-0.187087 0.05578,-0.111559 -0.05578,-0.26262 0,-0.374179 0.03944,-0.07888 0.147648,-0.108204 0.18709,-0.187087 0.02789,-0.05578 0.05625,-0.214026 0,-0.187089 -0.558239,0.267364 -1.063265,0.633971 -1.594898,0.950955"
       id="path8465"
       inkscape:connector-curvature="0" />
    <path
       style="fill:#6c0000;fill-opacity:1;stroke:none;stroke-width:0.26458332px;stroke-linecap:butt;stroke-linejoin:miter;stroke-opacity:1"
       d="m 129.83954,76.796634 c 3.92886,2.619243 6.17392,3.554685 6.5481,4.303041 0.37418,0.748355 4.8643,37.979005 4.8643,37.979005 0,0 -111.130665,-6.92229 -111.879021,-7.48355 -0.748352,-0.56127 5.051396,-37.791915 5.051396,-37.791915 L 128.717,76.983724 Z"
       id="path8467"
       inkscape:connector-curvature="0" />
    <path
       style="fill:#293f4e;fill-opacity:1;stroke:#000000;stroke-width:0.26458332px;stroke-linecap:butt;stroke-linejoin:miter;stroke-opacity:1"
       d="M 98.969905,54.345995 69.035717,54.158906 62.861792,98.498921 103.27294,101.67943 Z"
       id="path8469"
       inkscape:connector-curvature="0" />
    <path
       style="fill:#d5454e;fill-opacity:0.4321608;stroke:none;stroke-width:0.26458332px;stroke-linecap:butt;stroke-linejoin:miter;stroke-opacity:1"
       d="m 80.822304,78.854611 c 0.213971,-0.535252 0.18709,-0.955537 0.18709,-1.496711 0,-0.06236 0,-0.124724 0,-0.187087 0,-0.06236 -0.02789,-0.13131 0,-0.187089 0.03944,-0.07888 0.147645,-0.108204 0.187087,-0.18709 0.01278,-0.02556 0.01278,-1.096981 0,-1.122531 -0.03944,-0.07888 -0.159198,-0.103421 -0.187087,-0.187087 -0.02853,-0.08557 0.04162,-0.665105 0,-0.748356 -0.03944,-0.07888 -0.147648,-0.108206 -0.18709,-0.187089 -0.02789,-0.05578 0.0441,-0.142992 0,-0.187087 -0.0441,-0.0441 -0.142991,0.04409 -0.187089,0 -0.0441,-0.0441 0.02789,-0.13131 0,-0.18709 -0.07888,-0.157768 -0.295294,-0.21641 -0.374177,-0.374179 -0.02789,-0.05578 0.0441,-0.142991 0,-0.187086 -0.387093,-0.387094 0.01513,0.591528 -0.374176,-0.18709 -0.02789,-0.05578 0.0441,-0.142991 0,-0.18709 -0.387093,-0.38709 0.01513,0.591532 -0.374179,-0.187086 -0.02789,-0.05578 0.0441,-0.142992 0,-0.18709 -0.03825,-0.03825 -0.487087,0.03709 -0.561266,0 -0.07888,-0.03944 -0.10342,-0.1592 -0.18709,-0.187089 -0.106426,-0.03548 -0.759235,0 -0.935442,0 -0.04446,0 -0.706421,-0.02096 -0.748355,0 -0.04967,0.02484 -0.536427,0.511593 -0.561266,0.561265 -0.02789,0.05578 0.02789,0.131311 0,0.18709 -0.07888,0.157768 -0.295294,0.216411 -0.374177,0.374176 -0.02789,0.05578 0.0441,0.142992 0,0.18709 -0.0441,0.0441 -0.142991,-0.0441 -0.187089,0 -0.0441,0.0441 0.02789,0.13131 0,0.187089 -0.03944,0.07888 -0.147646,0.108204 -0.187087,0.18709 -0.02789,0.05578 0.02789,0.131307 0,0.187087 -0.03944,0.07888 -0.147648,0.108206 -0.187089,0.187089 -0.05578,0.111559 0.05578,0.26262 0,0.374177 -0.03944,0.07888 -0.147649,0.108206 -0.18709,0.187089 -0.07483,0.14967 0.07484,0.411594 0,0.561266 -0.03944,0.07888 -0.147645,0.108204 -0.187087,0.18709 -0.02847,0.05693 0,0.477009 0,0.561266 0,0.187086 -0.08367,0.393927 0,0.561265 0.02789,0.05578 0.142992,-0.0441 0.187087,0 0.0882,0.08819 -0.05578,0.262618 0,0.374177 0.03944,0.07888 0.147648,0.108204 0.18709,0.187089 0.02789,0.05578 -0.02789,0.13131 0,0.187087 0.03944,0.07889 0.147648,0.108207 0.187089,0.18709 0.05578,0.111559 -0.0882,0.285983 0,0.374176 0.04409,0.0441 0.142991,-0.04409 0.187087,0 0.0441,0.0441 -0.02789,0.13131 0,0.18709 0.07888,0.157768 0.295293,0.21641 0.374179,0.374176 0.02789,0.05578 -0.0441,0.142992 0,0.18709 0.04409,0.0441 0.142991,-0.0441 0.187087,0 0.387093,0.387093 -0.591529,-0.01514 0.187089,0.374179 0.05578,0.02789 0.13131,-0.02789 0.18709,0 0.07888,0.03944 0.108204,0.147645 0.187087,0.187087 0.05578,0.02789 0.142991,-0.0441 0.187089,0 0.0441,0.0441 -0.0441,0.142991 0,0.187089 0.387094,0.387093 -0.01513,-0.591529 0.374177,0.18709 0.02789,0.05578 -0.0441,0.142991 0,0.187086 0.0441,0.0441 0.13131,-0.02789 0.187089,0 0.224507,0.112255 0.336759,0.449014 0.561266,0.561266 0.05578,0.02789 0.142991,-0.0441 0.18709,0 0.04409,0.0441 -0.0441,0.142992 0,0.18709 0.04409,0.0441 0.124724,0 0.187086,0 0,0.06236 -0.02789,0.13131 0,0.187089 0.03945,0.07888 0.124728,0.124725 0.18709,0.187087 0.06236,0.06236 0.108207,0.147648 0.187089,0.18709 0.05578,0.02789 0.142992,-0.0441 0.18709,0 0.04409,0.0441 -0.02789,0.13131 0,0.187089 0.07888,0.157766 0.295294,0.216411 0.374176,0.374177 0.02461,0.04919 0,0.650523 0,0.748355 0,0.623628 0,1.247257 0,1.870885 0,0.12919 0.02844,0.691475 0,0.748355 -0.112254,0.224507 -0.449013,0.336759 -0.561266,0.561266 -0.02789,0.05578 0.0441,0.142991 0,0.18709 -0.0441,0.0441 -0.13131,-0.02789 -0.187089,0 -0.778619,0.389307 0.200004,-0.01291 -0.18709,0.374176 -0.04409,0.0441 -0.131307,-0.02789 -0.187086,0 -0.04968,0.02484 -0.53643,0.511593 -0.561266,0.561266 -0.02789,0.05578 0.02789,0.13131 0,0.187089 -0.389311,0.778619 0.01291,-0.200003 -0.374179,0.18709 -0.0441,0.04409 0.02789,0.131307 0,0.187087 -0.03944,0.07888 -0.147646,0.108206 -0.187087,0.187089 -0.02789,0.05578 0.0441,0.142992 0,0.18709 -0.0441,0.04409 -0.142992,-0.0441 -0.18709,0 -0.0441,0.04409 0.02789,0.13131 0,0.187087 -0.389308,0.778618 0.01291,-0.200004 -0.374176,0.187089 -0.0441,0.0441 0.04409,0.142992 0,0.18709 -0.0441,0.04409 -0.142992,-0.0441 -0.18709,0 -0.387093,0.387093 0.591529,-0.01513 -0.187089,0.374176 -0.05578,0.02789 -0.142992,-0.0441 -0.187087,0 -0.0441,0.0441 0.02789,0.13131 0,0.18709 -0.03944,0.07888 -0.124727,0.124724 -0.18709,0.187086 -0.06236,0.06236 -0.108204,0.147649 -0.187089,0.18709 -0.111556,0.05578 -0.262618,-0.05578 -0.374176,0 -0.778619,0.389311 0.200003,-0.01291 -0.18709,0.374176 -0.04409,0.0441 -0.142991,-0.0441 -0.187087,0 -0.0441,0.0441 0.0441,0.142992 0,0.18709 -0.0882,0.08819 -0.285983,-0.08819 -0.374179,0 -0.04409,0.0441 0.02789,0.13131 0,0.187089 -0.389308,0.778619 0.01291,-0.200003 -0.374176,0.18709 -0.0441,0.04409 0,0.124725 0,0.187087 0,0.130127 -0.03383,0.867786 0,0.935445 0.620495,0.620493 -0.08819,-0.17639 0.187089,0.374176 0.07888,0.157766 0.295294,0.216411 0.374177,0.374177 0.02789,0.05578 -0.0441,0.142991 0,0.187089 0.08819,0.08819 0.26262,-0.05578 0.374176,0 0.157768,0.07888 0.216411,0.295294 0.374179,0.374176 0.111556,0.05578 0.262618,-0.05578 0.374176,0 0.07888,0.03944 0.108204,0.147649 0.18709,0.18709 0.05354,0.02677 0.835496,0 0.935442,0 0.130128,0 0.867786,0.03383 0.935443,0 0.07888,-0.03944 0.108206,-0.147648 0.187089,-0.18709 0.111559,-0.05578 0.26262,0.05578 0.374176,0 0.07889,-0.03944 0.108207,-0.147645 0.18709,-0.187086 0.05578,-0.02789 0.142991,0.04409 0.187089,0 0.0441,-0.0441 -0.0441,-0.142992 0,-0.18709 0.387094,-0.387093 -0.01513,0.591529 0.374177,-0.187089 0.02789,-0.05578 -0.0441,-0.142992 0,-0.187087 0.0441,-0.0441 0.13131,0.02789 0.187089,0 0.03581,-0.01791 0.730449,-0.712544 0.748356,-0.748356 0.02789,-0.05578 -0.0441,-0.142991 0,-0.187089 0.04409,-0.0441 0.159197,0.05578 0.187087,0 0.07949,-0.15897 -0.06199,-0.749464 0,-0.935443 0.02789,-0.08367 0.147648,-0.108206 0.187089,-0.187089 0.05902,-0.118028 -0.05902,-0.817414 0,-0.935442 0.03944,-0.07888 0.147648,-0.108207 0.18709,-0.18709 0.02789,-0.05578 -0.02789,-0.13131 0,-0.187089 0.04332,-0.08664 0.638318,-0.638318 0.748353,-0.748353 0.06236,-0.06236 0.124727,-0.124727 0.187089,-0.18709 0.06236,-0.06236 0.108204,-0.147648 0.18709,-0.187089 0.05578,-0.02789 0.13131,0.02789 0.187086,0 0.07889,-0.03944 0.108207,-0.147646 0.18709,-0.187087 0.05578,-0.02789 0.13131,0.02789 0.187089,0 0.07888,-0.03944 0.108204,-0.147648 0.187087,-0.18709 0.05578,-0.02789 0.127926,0.01971 0.18709,0 0.644935,-0.214979 0.138589,-0.187089 0.561266,-0.187089 0.06236,0 0.13131,-0.02789 0.187089,0 0.07888,0.03944 0.108204,0.147648 0.187087,0.187089 0.111559,0.05578 0.285986,-0.08819 0.374179,0 0.0441,0.0441 -0.0441,0.142992 0,0.18709 0.0441,0.04409 0.13131,-0.02789 0.18709,0 0.03581,0.01791 0.730445,0.712541 0.748352,0.748353 0.02789,0.05578 -0.04409,0.142991 0,0.187089 0.0441,0.0441 0.131311,-0.02789 0.18709,0 0.778618,0.389311 -0.200004,-0.01291 0.18709,0.374177 0.04409,0.0441 0.142991,-0.0441 0.187086,0 0.0441,0.0441 -0.02789,0.13131 0,0.187089 0.07889,0.157768 0.295294,0.216411 0.374179,0.374176 0.07483,0.149673 -0.07484,0.411597 0,0.561266 0.03944,0.07889 0.147646,0.108207 0.187087,0.18709 0.05578,0.111559 -0.05578,0.26262 0,0.374179 0.03944,0.07888 0.147648,0.108204 0.18709,0.187087 0.07484,0.149672 -0.07483,0.411596 0,0.561266 0.03944,0.07888 0.147648,0.108206 0.187089,0.187089 0.02789,0.05578 0,0.124725 0,0.18709 0,0.132606 -0.02418,1.074158 0,1.122532 0.03944,0.07888 0.147646,0.108204 0.187087,0.187086 0.05578,0.111559 -0.05578,0.262621 0,0.37418 0.03944,0.07888 0.147648,0.108204 0.18709,0.187086 0.02789,0.05578 -0.02789,0.13131 0,0.18709 0.03944,0.07888 0.147648,0.108204 0.187089,0.187089 0.02789,0.05578 -0.02789,0.13131 0,0.187087 0.02484,0.04968 0.511591,0.53643 0.561266,0.561266 0.05578,0.02789 0.142992,-0.0441 0.187087,0 0.0441,0.0441 -0.0441,0.142992 0,0.18709 0.05119,0.05119 0.646861,-0.05075 0.748355,0 0.07888,0.03944 0.108207,0.147648 0.18709,0.187089 0.05578,0.02789 0.124725,0 0.187087,0 0.124727,0 0.255852,0.03944 0.374179,0 0.08367,-0.02789 0.108204,-0.147648 0.187089,-0.187089 0.14967,-0.07484 0.411594,0.07483 0.561266,0 0.07888,-0.03944 0.124725,-0.124725 0.187087,-0.18709 0.06236,-0.06236 0.124727,-0.124724 0.18709,-0.187087 0.0985,-0.0985 0.511304,-0.461346 0.561266,-0.561266 0.02789,-0.05578 -0.02789,-0.13131 0,-0.187089 0.428114,-0.856231 -0.07754,0.793895 0.374176,-0.561266 0.01971,-0.05916 -0.01971,-0.127926 0,-0.18709 0.0441,-0.132291 0.153268,-0.238892 0.18709,-0.374176 0.03025,-0.121002 -0.03944,-0.255852 0,-0.374176 0.02789,-0.08367 0.147648,-0.108207 0.187089,-0.18709 0.05879,-0.117589 -0.0588,-0.630766 0,-0.748355 0.03944,-0.07888 0.147645,-0.108204 0.187087,-0.187087 0.02789,-0.05578 0,-0.124727 0,-0.18709 0,-0.187089 0.05916,-0.383778 0,-0.561266 -0.02789,-0.08367 -0.147646,-0.108206 -0.187087,-0.187089 -0.05969,-0.119369 0.05754,-0.820367 0,-0.935442 -0.02789,-0.05578 -0.1592,0.05578 -0.187089,0 -0.167339,-0.147588 0.08367,-0.393931 0,-0.561266 -0.620496,-0.620496 0.08819,0.176387 -0.18709,-0.374179 -0.620496,-0.620493 0.0882,0.176389 -0.187087,-0.374177 -0.03944,-0.07888 -0.147648,-0.108204 -0.187089,-0.187089 -0.02789,-0.05578 0.0441,-0.142992 0,-0.187087 -0.0441,-0.0441 -0.142992,0.04409 -0.18709,0 -0.387093,-0.387093 0.591529,0.01513 -0.187087,-0.374179 -0.05578,-0.02789 -0.13131,0.02789 -0.187089,0 -0.157769,-0.07888 -0.216411,-0.295294 -0.374177,-0.374177 -0.111559,-0.05578 -0.26262,0.05578 -0.374179,0 -0.07888,-0.03944 -0.108204,-0.147648 -0.187087,-0.187089 -0.111559,-0.05578 -0.26262,0.05578 -0.374179,0 -0.07888,-0.03944 -0.108204,-0.147645 -0.187089,-0.187087 -0.05578,-0.02789 -0.124725,0 -0.187087,0 -0.06236,-0.06236 -0.108207,-0.147648 -0.18709,-0.187089 -0.111558,-0.05578 -0.26262,0.05578 -0.374176,0 -0.07888,-0.03944 -0.108207,-0.147649 -0.187089,-0.18709 -0.05578,-0.02789 -0.142992,0.0441 -0.18709,0 -0.0441,-0.04409 0.0441,-0.142991 0,-0.187087 -0.387093,-0.387093 0.01513,0.591529 -0.374176,-0.187089 -0.02789,-0.05578 0.0441,-0.142992 0,-0.18709 -0.0441,-0.0441 -0.142992,0.0441 -0.18709,0 -0.04409,-0.0441 0.02789,-0.13131 0,-0.187087 -0.231185,-0.462372 -0.187087,0.06458 -0.187087,-0.374179 0,-0.08426 0.02847,-0.504327 0,-0.561266 -0.03944,-0.07888 -0.187089,-0.09889 -0.187089,-0.187089 0,-0.08819 0.147648,-0.108204 0.187089,-0.187087 0.05969,-0.119369 -0.05754,-0.820367 0,-0.935445 0.02789,-0.05578 0.159197,0.05578 0.187087,0 0.08367,-0.167336 -0.08367,-0.393928 0,-0.561266 0.03944,-0.07888 0.147648,-0.108204 0.18709,-0.187087 0.05578,-0.111559 -0.05578,-0.26262 0,-0.374179 0.03944,-0.07888 0.147648,-0.108204 0.187089,-0.187087 0.02789,-0.05578 -0.02789,-0.13131 0,-0.187089 0.07888,-0.157769 0.295294,-0.216411 0.374177,-0.374177 0.02789,-0.05578 -0.02789,-0.13131 0,-0.187089 0.03944,-0.07888 0.147648,-0.108207 0.187089,-0.18709 0.02789,-0.05578 -0.0441,-0.142991 0,-0.187087 0.0441,-0.0441 0.142991,0.0441 0.187087,0 0.0441,-0.0441 -0.0441,-0.142991 0,-0.187089 0.0441,-0.0441 0.142991,0.0441 0.187089,0 0.387094,-0.387093 -0.591528,0.01513 0.18709,-0.374176 0.05578,-0.02789 0.142991,0.04409 0.187087,0 0.0441,-0.0441 -0.0441,-0.142992 0,-0.18709 0.0441,-0.0441 0.142991,0.0441 0.187089,0 0.0441,-0.0441 -0.02789,-0.13131 0,-0.187089 0.389311,-0.778619 -0.01291,0.200003 0.374179,-0.187087 0.0441,-0.0441 -0.0441,-0.142994 0,-0.18709 0.0441,-0.0441 0.131308,0.02789 0.187087,0 0.157769,-0.07888 0.216411,-0.295293 0.374179,-0.374179 0.05578,-0.02789 0.131308,0.02789 0.187087,0 0.07888,-0.03944 0.108207,-0.147645 0.18709,-0.187087 0.05578,-0.02789 0.124724,0 0.187089,0 0.06236,-0.06236 0.108204,-0.147648 0.187087,-0.187089 0.111559,-0.05578 0.26262,0.05578 0.374179,0 0.157766,-0.07888 0.216408,-0.295294 0.374177,-0.374177 0.111558,-0.05578 0.26262,0.05578 0.374176,0 0.07888,-0.03944 0.108207,-0.147648 0.187089,-0.187089 0.05578,-0.02789 0.131311,0.02789 0.18709,0 0.157766,-0.07888 0.216411,-0.295294 0.374176,-0.374177 0.111559,-0.05578 0.285983,0.08819 0.374177,0 0.0441,-0.0441 -0.02789,-0.13131 0,-0.187089 0.07888,-0.157766 0.295296,-0.216411 0.374179,-0.374177 0.02789,-0.05578 -0.02789,-0.13131 0,-0.187089 0.03944,-0.07888 0.147645,-0.108204 0.187087,-0.18709 0.01045,-0.02088 0.01045,-0.914561 0,-0.935442 -0.03944,-0.07888 -0.147646,-0.108204 -0.187087,-0.187089 -0.05578,-0.111557 0.05578,-0.262618 0,-0.374177 -0.03944,-0.07888 -0.147648,-0.108206 -0.18709,-0.187089 -0.02789,-0.05578 0.02789,-0.13131 0,-0.187087 -0.01791,-0.03581 -0.712541,-0.730449 -0.748355,-0.748356 -0.05578,-0.02789 -0.142992,0.0441 -0.187087,0 -0.0441,-0.0441 0.04409,-0.142991 0,-0.187089 -0.0441,-0.0441 -0.13131,0.02789 -0.18709,0 -0.07888,-0.03944 -0.108204,-0.147646 -0.187089,-0.18709 -0.14967,-0.07483 -0.411594,0.07484 -0.561266,0 -0.07888,-0.03944 -0.108204,-0.147645 -0.187087,-0.187086 -0.04964,-0.02482 -1.274072,-0.01185 -1.309621,0 -0.08367,0.02789 -0.108207,0.147645 -0.18709,0.187086 -0.05578,0.02789 -0.13131,-0.02789 -0.187087,0 -0.07888,0.03944 -0.108206,0.147648 -0.187089,0.18709 -0.05578,0.02789 -0.13131,-0.02789 -0.18709,0 -0.07888,0.03944 -0.108204,0.147648 -0.187089,0.187089 -0.05578,0.02789 -0.131308,-0.02789 -0.187087,0 -0.07888,0.03944 -0.108207,0.147646 -0.18709,0.18709 -0.05578,0.02789 -0.13131,-0.02789 -0.187089,0 -0.07888,0.03944 -0.108204,0.147645 -0.187087,0.187087 -0.05578,0.02789 -0.13131,-0.02789 -0.187089,0 -0.07888,0.03944 -0.124725,0.124727 -0.18709,0.187089 -0.06236,0.06236 -0.147645,0.108204 -0.187087,0.18709 -0.02789,0.05578 0.0441,0.142991 0,0.187087 -0.0441,0.0441 -0.13131,-0.02789 -0.187089,0 -0.07888,0.03944 -0.124725,0.124727 -0.18709,0.187089 -0.06236,0.06236 -0.147645,0.108204 -0.187087,0.18709 -0.02789,0.05578 0.0441,0.142991 0,0.187087 -0.387093,0.387093 0.01513,-0.591529 -0.374179,0.187089 -0.02789,0.05578 0.02789,0.13131 0,0.18709 -0.07888,0.157765 -0.295293,0.21641 -0.374176,0.374176 -0.02789,0.05578 0.0441,0.142991 0,0.18709 -0.0441,0.04409 -0.142992,-0.0441 -0.18709,0 -0.04409,0.04409 0.02789,0.131307 0,0.187086 -0.03944,0.07889 -0.147645,0.108207 -0.187087,0.18709 -0.02789,0.05578 0.0441,0.142991 0,0.187089 -0.0441,0.0441 -0.13131,-0.02789 -0.187089,0 -0.07888,0.03944 -0.124727,0.124725 -0.18709,0.187087 -0.110035,0.110035 -0.661717,0.705038 -0.748352,0.748356 -0.05578,0.02789 -0.13131,-0.02789 -0.18709,0 -0.620495,0.620495 0.17639,-0.08819 -0.374176,0.187089 -0.07889,0.03944 -0.108207,0.147646 -0.18709,0.187087 -0.111559,0.05578 -0.26262,-0.05578 -0.374179,0 -0.07888,0.03944 -0.09889,0.18709 -0.187087,0.18709 -0.139448,0 -0.241887,-0.142992 -0.374179,-0.18709 -0.05916,-0.01971 -0.131307,0.02789 -0.187087,0 -0.07888,-0.03944 -0.108206,-0.147645 -0.187089,-0.187087 -0.111559,-0.05578 -0.26262,0.05578 -0.374177,0 -0.07888,-0.03944 -0.108206,-0.147648 -0.187089,-0.187089 -0.05578,-0.02789 -0.13131,0.02789 -0.18709,0 -0.07888,-0.03944 -0.108204,-0.147646 -0.187086,-0.18709 -0.111559,-0.05578 -0.262621,0.05578 -0.374179,0 -0.157766,-0.07888 -0.216411,-0.295293 -0.374177,-0.374176 -0.05578,-0.02789 -0.142991,0.0441 -0.187089,0 -0.0441,-0.0441 0.02789,-0.13131 0,-0.18709 -0.155951,-0.311901 -0.374177,-0.08453 -0.374177,-0.561266"
       id="path8471"
       inkscape:connector-curvature="0" />
    <path
       style="fill:#48d34e;fill-opacity:0.4321608;stroke:none;stroke-width:0.26458332px;stroke-linecap:butt;stroke-linejoin:miter;stroke-opacity:1"
       d="m 74.2742,86.338158 c 0.249452,-0.06236 0.509617,-0.09159 0.748356,-0.18709 0.38781,-0.155123 0.07634,-0.152678 0.187089,-0.374176 0.03944,-0.07888 0.147646,-0.108207 0.187087,-0.18709 0.01045,-0.02088 0.01045,-0.914561 0,-0.935442 -0.03944,-0.07888 -0.147645,-0.108207 -0.187087,-0.18709 -0.02789,-0.05578 0.02789,-0.13131 0,-0.187089 -0.01791,-0.03581 -0.712544,-0.730449 -0.748355,-0.748353 -0.111559,-0.05578 -0.26262,0.05578 -0.374177,0 -0.07888,-0.03944 -0.108206,-0.147648 -0.187089,-0.18709 -0.05694,-0.02847 -0.47701,0 -0.561266,0 -0.374179,0 -0.748356,0 -1.122532,0 -0.06236,0 -0.124727,0 -0.187089,0 -0.06236,0 -0.131311,-0.02789 -0.18709,0 -0.157766,0.07888 -0.216408,0.295294 -0.374176,0.374177 -0.05578,0.02789 -0.142992,-0.0441 -0.18709,0 -0.04409,0.0441 0.02789,0.13131 0,0.187089 -0.07888,0.157769 -0.295293,0.216411 -0.374176,0.374177 -0.05578,0.111559 0.05578,0.26262 0,0.374179 -0.03944,0.07888 -0.147648,0.108204 -0.18709,0.187087 -0.02461,0.04919 0,0.650523 0,0.748355 0,0.09783 -0.02461,0.699162 0,0.748356 0.03944,0.07888 0.147648,0.108204 0.18709,0.187089 0.05578,0.111556 -0.08819,0.285983 0,0.374176 0.0441,0.0441 0.142991,-0.0441 0.187089,0 0.0441,0.0441 -0.02789,0.131311 0,0.18709 0.389308,0.778618 -0.01291,-0.200006 0.374177,0.187087 0.0441,0.0441 -0.0441,0.142991 0,0.187089 0.0441,0.0441 0.124727,0 0.187089,0 0.374177,0 0.748353,0 1.122532,0 0.06236,0 0.13131,0.02789 0.187087,0 0.07888,-0.03944 0.108206,-0.147648 0.187089,-0.187089 0.111559,-0.05578 0.285983,0.0882 0.374179,0 0.0441,-0.0441 0,-0.124725 0,-0.187087 0.24945,-0.249452 0.498901,-0.498904 0.748353,-0.748355 z"
       id="path8473"
       inkscape:connector-curvature="0" />
    <path
       style="fill:#48d34e;fill-opacity:0.4321608;stroke:none;stroke-width:0.26458332px;stroke-linecap:butt;stroke-linejoin:miter;stroke-opacity:1"
       d="m 90.925091,78.854611 c 0.873082,0 1.746162,0 2.619242,0 -0.06236,0 -0.127926,-0.01971 -0.187089,0 -0.132292,0.0441 -0.241885,0.142992 -0.374177,0.187087 -0.118324,0.03944 -0.26262,-0.05578 -0.374176,0 -0.07889,0.03944 -0.108207,0.147648 -0.18709,0.18709 -0.05578,0.02789 -0.13131,-0.02789 -0.187089,0 -0.413663,0.206832 -0.05806,0.116115 -0.187087,0.374179 -0.03944,0.07888 -0.147648,0.108204 -0.187089,0.187087 -0.02789,0.05578 0.02789,0.13131 0,0.187089 -0.03944,0.07888 -0.147649,0.108204 -0.18709,0.18709 -0.07483,0.149669 0.07484,0.411593 0,0.561265 -0.03944,0.07888 -0.147645,0.108204 -0.187087,0.187087 -0.05578,0.111559 0.05578,0.26262 0,0.374179 -0.03944,0.07888 -0.1592,0.103421 -0.187089,0.187087 -0.0028,0.0085 -0.01344,0.90855 0,0.935445 0.03944,0.07888 0.147645,0.108204 0.187089,0.187087 0.05578,0.111559 -0.05578,0.26262 0,0.374179 0.03944,0.07888 0.147646,0.108204 0.187087,0.187087 0.02789,0.05578 -0.04409,0.142991 0,0.187089 0.0441,0.0441 0.13131,-0.02789 0.18709,0 0.07888,0.03944 0.108204,0.147649 0.187089,0.18709 0.05578,0.02789 0.131307,-0.02789 0.187087,0 0.07888,0.03944 0.108207,0.147645 0.187089,0.187087 0.04919,0.02461 0.650524,0 0.748356,0 0.167203,0 0.875821,0.02981 0.935442,0 0.07888,-0.03944 0.108207,-0.147646 0.18709,-0.187087 0.111556,-0.05578 0.262617,0.05578 0.374176,0 0.03581,-0.01791 0.730449,-0.712541 0.748356,-0.748355 0.03383,-0.06766 0,-0.805315 0,-0.935443 0,-0.07396 0.03995,-0.85554 0,-0.935445 -0.03944,-0.07888 -0.147649,-0.108204 -0.18709,-0.187087 -0.03709,-0.07418 0.03825,-0.52302 0,-0.561265 -0.04409,-0.0441 -0.142991,0.04409 -0.18709,0 -0.38709,-0.387094 0.591532,0.01513 -0.187086,-0.374179 -0.05578,-0.02789 -0.13131,0.02789 -0.18709,0 -0.157766,-0.07888 -0.216411,-0.295294 -0.374176,-0.374177 -0.111559,-0.05578 -0.26262,0.05578 -0.374179,0 -0.07888,-0.03944 -0.108204,-0.147648 -0.187087,-0.187089 -0.05578,-0.02789 -0.125272,0.0083 -0.18709,0 -0.874207,-0.116563 -1.74616,-0.249452 -2.619242,-0.374177"
       id="path8475"
       inkscape:connector-curvature="0" />
    <path
       style="fill:#48d34e;fill-opacity:0.4321608;stroke:none;stroke-width:0.26458332px;stroke-linecap:butt;stroke-linejoin:miter;stroke-opacity:1"
       d="m 83.254457,91.950817 c -2.19343,1.096716 -0.4377,-0.06005 -0.748355,0.561266 -0.03944,0.07888 -0.147645,0.108206 -0.18709,0.187089 -0.07483,0.149672 0.07484,0.411594 0,0.561266 -0.07606,0.152125 -0.296777,0.1548 -0.187086,0.374176 0.301781,0.603565 0.07239,-0.229385 0.374176,0.374179 0.02789,0.05578 -0.0441,0.142992 0,0.187087 0.08819,0.0882 0.26262,-0.05578 0.374176,0 0.07889,0.03944 0.108207,0.147648 0.18709,0.18709 0.219379,0.109688 0.222054,-0.111027 0.374176,-0.18709 0.111559,-0.05578 0.285983,0.0882 0.374179,0 0.08819,-0.08819 -0.05578,-0.262617 0,-0.374176 0.03944,-0.07888 0.147646,-0.108204 0.187087,-0.18709 0.02461,-0.04919 0,-0.65052 0,-0.748352 0,-0.06236 0.03896,-0.138393 0,-0.18709 -0.220377,-0.275473 -0.498901,-0.498904 -0.748353,-0.748355 z"
       id="path8477"
       inkscape:connector-curvature="0" />
  </g>
</svg>
